<mxfile>
    <diagram id="kVlgksatFZaBsWDTEkse" name="ページ1">
        <mxGraphModel dx="1082" dy="797" grid="1" gridSize="10" guides="1" tooltips="1" connect="1" arrows="1" fold="1" page="1" pageScale="1" pageWidth="827" pageHeight="1169" math="0" shadow="0">
            <root>
                <mxCell id="0"/>
                <mxCell id="1" parent="0"/>
                <mxCell id="19" value="" style="whiteSpace=wrap;html=1;aspect=fixed;" parent="1" vertex="1">
                    <mxGeometry x="110" y="100" width="630" height="630" as="geometry"/>
                </mxCell>
                <mxCell id="20" value="" style="rounded=0;whiteSpace=wrap;html=1;" parent="1" vertex="1">
                    <mxGeometry x="120" y="235" width="100" height="335" as="geometry"/>
                </mxCell>
                <mxCell id="21" value="&lt;span style=&quot;font-size: 12px;&quot;&gt;&lt;font style=&quot;font-size: 12px;&quot;&gt;メニュー&lt;/font&gt;&lt;/span&gt;" style="text;html=1;strokeColor=none;fillColor=none;align=center;verticalAlign=middle;whiteSpace=wrap;rounded=0;fontStyle=0;fontSize=12;" parent="1" vertex="1">
                    <mxGeometry x="130" y="250" width="80" height="60" as="geometry"/>
                </mxCell>
                <mxCell id="22" value="ヘッダ" style="rounded=0;whiteSpace=wrap;html=1;" parent="1" vertex="1">
                    <mxGeometry x="100" y="100" width="630" height="60" as="geometry"/>
                </mxCell>
                <mxCell id="23" value="テスト受験" style="text;html=1;strokeColor=none;fillColor=none;align=center;verticalAlign=middle;whiteSpace=wrap;rounded=0;fontStyle=0;fontSize=10;" parent="1" vertex="1">
                    <mxGeometry x="130" y="325" width="80" height="60" as="geometry"/>
                </mxCell>
                <mxCell id="24" value="テスト結果一覧" style="text;html=1;strokeColor=none;fillColor=none;align=center;verticalAlign=middle;whiteSpace=wrap;rounded=0;fontSize=13;fontStyle=1" parent="1" vertex="1">
                    <mxGeometry x="110" y="385" width="120" height="60" as="geometry"/>
                </mxCell>
                <mxCell id="25" value="" style="shape=image;verticalLabelPosition=bottom;labelBackgroundColor=#ffffff;verticalAlign=top;aspect=fixed;imageAspect=0;image=data:image/png,iVBORw0KGgoAAAANSUhEUgAAASwAAAD/CAIAAADEwnwXAAAXk0lEQVR4nO2d25LjKgxFlVPz/7/s8+A0wVwFSELCWjVV4yQ2YGAjce3PdV3gOM4+/tudAMd5Oy5Cx9mMi9BxNuMidJzNuAgt8fl8Vm4eetwRw0XoOJv5tzsBzjBtg9aec4qf9dkpJXy8JKzw+aSFFb5JfkpUWrvHi14J7o4eyHVdt8DCxY33CXXiIrTBon5uu3dd1x2Om0FVeGHY4BZPcCwbdyb35OXrCtSGW0ID5LLJHc7E82wH9R6/FPOm8T21a1ZchCeT6C2I+SU6RLY4xXsk/QWfojDAaG3IK1/szYYw8y+PIX612psmwgsf84v8WVpchIcTV8S8vberwFoLknwfRqSKjyBfn9trcBG+iLYpsE7XsNekuB0X4YGoqmEcFFcpxNYvuTlcx8NXtftjgh9BlvQSLkLnQIqy6YoNfz8tLkKTtEcRuk8dj6039Xlbhxjy+p/U0O4i2NrsQuP7etQS6nBL6FCixAINWcLt69pdhA4l3BU4rH1NvsxXFBV/Ujg0Ci5CE5w0v7dObW6wdnO8dAHzbHEjGCsuQhu8WXWLBB3Wfo0/ujvqOC1qCsllls8N6nREb3x01ADyDpJFMEs94x1e04M35LgIDTB6MoXvGLSFu6MGwCsqmbt3KZrA9xOeQ7xjIO4IOcpxER5C0QV1HZrARWiAtpDujYKNIfjiTkJHD94ntA1mDCbf9eOowi2hAYI1S4zekK7e6ZqaOOjJLaENipviRy2b8jlrcsKCtfb7Fu+RdBzcRbHH+jzh8a5pftIMVBoyJH7Qk/ODRD8Y+6CT7lp2P+jJYYTWk7Trmtb8RrsHPZlsDl/IkOHiu3k7xdQ2Vm8n+M56ZwbultuuSWzgBz05ZMiYKdMTiTXbuCUxc7gI9SKsCrLRGvL6nx309PixssMw/7KhzL2idRFqZJd/SOCa8ldmzISeH/TkLLHXLVx1TcUTXjTgftCTM4+SjpndicQEP+jJGUBbI21l1HRuVVr861BoHLgIVaDT7OgcNcVYKj/oyRlgonLILw3VXIMDftCTM8OEWjB6YLJd2kziMfh+wm3MKXDvwKmtSXAreJ9wA3PenQZDpLxzZRQXoTSsWgpdns+H62+z6BytMY27o6JM113EYEz6Z8lYPUd3TQlxEQrRPhOt+2zjwUR+t6EKP/Fx+TluRLhTIcGi81as6Nd1JV+HGP7WiKTfM+Gu6SKefezwzNolAZb/WEV8dBjvTJfrcAF3RxlZcUHrYaZfXFd1rDI+ToXVb3TXdAUXIRfxEUNEARb6ft3wJXXoozVzuBdBD8dMWiK/dhSlUzR/l+Rpy2PnjuIwfJ6QGFb/8w54Iorr+oYjMMvnE4mjuDtKCW3Ny/3PlU7mn4Dva/YunLumeNwS0kDrgxXnHqgUfi+mkTGJ7ppicJ+BAMKq3J76W09PPnko4De6a9rGc2cVQgMVE4sESDccFnU4GsUorsMGnjXzUNXdmvxgtu5iFppSxTWUKnDXtISLcBKSKtuQ30oUmAe36FAmCnN4jsywXpO68oMFo4FMXk2HK1FjcB0meHaMsV5H2/IDGoVjQ6gt8nbXVBIX4QDLmyEeH4shEXm5Q0Op5fS4ayqG5wKKZf/w8bEmv5UokqAGR1PLCZNxTbmj0I+LsM9Kg42R32IUJKE1Nh+6SeTm1S+PYWGI8vGxIT9AmALMoZrxzVMTGyH8cuw+WsPEe9+8y0rNy1dd16LADWOW9+wuBlt68HvB119txv5S19QXcJeZ3g0Yr7q+LgIFShKtoSn+6jsSWVBXDzSw6M7dtOUHfNOASR0ej6RrD8FdU1Le9bZdZo/lfXxsP804Ddg2ISNxdg+JcteUEBfhj5VBxZvu0yTHrnUV+Pn7cNWUh0jCdh3KRKGBV7wkhum5tRuM/IBpGjBOyfW44XdnzUh2jDYAp1+N4Q06PP8Nu4zWpFH5AYUBrI6OZgpMbihEXRRk1dwB8DvYbY53Td++s35uhdcNUn7AV4E+4f/WX6JN0xBujF8nXJcHY1ovy72DXuAQgL28V4RD9WZCfsBab54GsNr3u3+vVWKEGq+/E6K6OixHQQe31DdybOvSZmKfwQ0+t8hXov3SEEtuZFa9n6RK1/EnTOaRJwznmcTT3gfD6Ha7myH5wVYXtHnGDC5tdTVKDkE1ojip3h71Ml3QCzUfH4dySMwFXUnDWCJHBnImoxjnJNf0RSIcOvThZjRvNCgQmYyZpA6q0V1TJCe8Awb82Uc3E/IDpob5OQs/seC7cRtMLQ+qjMOSRTGYHvN12PwLdOnWg0X5gRoD+HuI6JDS+iO9FCUTk+6aNjl8F0V3M0Sy50inAj9Qsz4ETGxceKwUuEpa/Pz9m41iMD22t18cawmHDOBcHqhyQR9Pzxi3iSOGvxfpQ5Wuox+WUeNMEbZr4br/2Y1iiSkX9BEA54Glz/u/F+WHSmqcaFNGMddLNJZcDM1ZssfHwwzg79mlQ3FIdfi9qfQlZ72zpUNLae3SkAeJ/EDKAC6aC8YNU+X7vxf9J6Y2c8xhyDU9R4T1tVqPjyuvKzMGsx4FSTrnlrZjn5BSowmTaCCJGIp5TSs/0O2CPoIk+0NRnDoMURSVR5fT+nWoPX1divIglB+ocUHxDQFhguf2mkyuNGLrOip3TW2LMK9ttPIrRkHDoAEsbJZH3EzF6KaT1elWHjWqNYlKk4Uh22/++JVEfqDDBW3trEfcT4KMDiHJcOquo04dmtzUm5QWufxAbB2MYh8p4RrcU9veBFyLApKcDyEkamyeA9COQqFrqrFhaPM8QOXxE5X8QIcBrAazwxIOBT7dOQxRQKMIKJxVVSZRUVK6xGXDIT9QMwbTCqazGOiRL0zvgmmnFnUImLJYU6Mek2hGhNHIxON7wuTrnwbsKjDx6PaaRAkdfu8rfYmLVINJRA2L55Qm5ao1YP09iwqklR/odkEBrcDGNTkyOgR80UwN5NDO6EwE1R+YKeqteBtH2YcyYJIfWHBBoZnIdjVlHYroBn7hDmtrRwH4MpoayNk+WjPTxS/NzlUN5vpiYj7/E/gUSLoOpq1ATAG1A1kHuW1lJf759KOdVWQUcW3PhcBiCTHEBjD5BjKJose4PwC8BhCfmMGg40tKjyAw4ecvNogrga/bQ1ixV0XzWLKN+CwK+f8NLCqdhkRrUM4T/hmuT/Iyoz7qLb84e8hrjq1pwFqPYDTwja4plQ5hpewQapzLosVeWF+ENVczvyeOfjq/7pCicIaeRkZhwAVtxbOQftZR03bgJDoEEpPeVON9oLnkqGlHhMh05PKbgLXv9xeFJRe0HA9F5djlmtLqENaLsj6Qc8EFH/qtVUWIl63lA6RDCyxuuPxEEQMIW6fI8exyTQl1CIRlGofR6zomJK7ixAhIWYS5C5r0RBvf19xXTH7xyQ/cAGbsck2pdAhMTUnNPNbT8L29NCqJoWoJa8Obxe/zHA/XQ54Ph1okpgE5uxDcU1gCJpFbh8BQyt88QfujtVFJDGTuKGb8pkYoksSurmerkAv6YXRBBYYHuE1iUeSEOoTBtr5BWvfuT8wlQNknrLUEuAz6zgpeF4F9B1YDYtkFbcA3WlMTOYcOYaG2pM/eaYPCARx5P3C8wv8gE2HsfCY/DdnouDxyNQIuiwUMoGkXtIa8axp0SBUFUCx8AWh1CJObK/72gA6JJ+shywhk5/Cv+O9H0nax0REtJsNd0GnkXdNbhyTGMI6lUT3CbdUg0LteulV6fnQUmoOctS8Ti5wnsZssTLvYcFYlXFDmady9CgzIu6ZA5JSGWJLKMNO1ufoDpO3QsOORGor8JjKeACPTFYQDOaXQo2sjLihVIlm94iSRJIu8i7H8BYuvT/cD38cFBKJIhPDrPX4/DiVttN+ICzS+lKuRB4eWhAwPY/X9fj22+cog5fLEaPzTaOHFh7rsoed5uyI3S+mIywM+d8hLAdbiGZxHFaY42EYVchz4XLnHhHIPhTWtQEmUnra2OGi2Osmh0gXdosAbsVHTuUkL4v6IuGuoS4R5eZCsMIShclI5CrpRgTdio6Z4HRJr7zkvLzlCpkuERfA6bIzpodSo0gB+k/OnAY70DCWDySTGIm/rEKm9seLbmq+qRUi7ouIvzMoCAEEFqhoMG0XAJOY6ZBl1C2zqCgbUiTCxZrQrKpKIfh+eY2JKXNC58OMLvrhYJxJD4v90KNJsxdVBtqHUODqacH1nbJA3Tw3lRT2B4WdxhFE7pvDh58s9Ron5oguj0Ezhr3T5BrJaZIl2G3WWsAGhU9og6X2pmj0fjYLPXoXwa1FPkOT56JqNqSg5A0ejUYR51eHoHLajXp3kiJBxQWtRsM4uxFGs5E8IJ/qSIGG9iP8ungmX77RrFGERfOeQtvlfUSN37QdcjWEdSglRjL4sJj/n0jv2pgrGyMyIEBiW2w/GPqbGXS5oDSWuKSb35BxRBQoEtSJs1xhWHXYrK0aNrFsQYNbGbnRN8X6EqCNaiH3DBJJSEdZAdg65W/0Qy30R1zAlLmgNYdd0ukc9nbr+q+2eFcwxJkLgmzm8AD4wd9RkrkamWk6lcNbGYiUTwqPsElGjQNAswoY14+4crhhSwmHVBFphk5vE/H1HpxCjrUxsEml2BXctZtIrQgwNHcp4pI1IadXIvUxsOoTa2y0EO28GO5HqmBXMsSpCsZnDdRbVKDOUMpeq0aeaAd6hsQ3M6OsKBlSLsN1OMxYYjyGdUKOMMce7puTa+wv2Fz7v+zbM5L6F9apF2GXvzGERjHqRahSuFo2Uj2pvLuXsZlBNJUmwLcJAUYdbuoVD1NQoMM9RS08cNZPdS6Camq+WtdauYEC7CBFT51ydQ0kN842pTqQk7I0QSENs+lhyG9cV3NtYG9jK1IUs9+5wlhvOeJJ64lmIlMC6FykhxJiM7k6EIzY1j46AOfw1tFtCJLXOoX6PNCdJc6xD8hcpBi6WY4RrRMtp1t0VDBgQ4ZCQaJ1SDRqOtUHlrG53eiFbI0qfz2gfYnsRGxAhElUzh+TqTWzjypTj6FNDjL41V0IUzwrmnCNCqIxxa7Bmo+QeaZz++FfczqAB7cnkFe1mpWqajZT5USIElTOHrDSGVeV9TqSA2QebjHQFAzZEOGHNqHQ4bUiFLXCiPf3GP04dZWoHFa4ho06YokgIWRqvyseO9RPNUqyzPs8xgUCNJN81/0izqa5g4EARgsC8E44VIZkDt/RUJCk6Sh+PGRGOVui7PpCUuiEtxVPtatOcSJXM/I53BTX4omBIhNP8+T96K2WN0TQXB1GnHyeH4/imX5qNle2Dk0WYdw53pIFA/EkgRbUUvxRreroC5k2Fza5gwJIIJ6oUVbu73ZDGq0k57JXUxkXOeAeDUeKLgi0RzhE6h9uFNEGc5uuP/Lbm1uf9b810juj3ra3NCuacL8LArqrILQPMHuKNCRByRC1jTIRz9SkerUDcDQCF0t1lUtrxIn0qkkBWKO+2XYv3CqU5HoYeXxTMiXCaaJDmiMbTCHwH2v/KUYuU5nmLCOFXFTYUGpMVHWrO5dPA2tx9zaB9BYJFEa5XpumnVXmkUxvYacIZjLT8/VK8a4WgyhcFiyJcQcPM4Uvgc0StzwrmvEuEsG9ZKa0VnW7LZZIh0cadokAwKsLlmnRv9tkS9SRxvKuDinRB9SKq/jQf7314woI/qs0XBaMiXCTaele74/5ZJjljkNQh1qZEwBHVpqJF3ihCAAjlKWnVNCxeIaSyhJUvvvD/OXl4Y1WE6xV6ujHd65FSGQHWjf/tUJfiXUuvQl8UrBxvQU6ogoYOpAnnVtCGSXokHACrI3opVdEiLxVhgpgOp+0PX+WjSo+AI3oqVt1RINuq970YCumw3h0hXTkPa55uVlCtFTUswkWCkFSWywPmiQSCBoXREb357kdTqqJF3ivCGMIDaRBx6Tp1ApaTxO6IHqi7B7ZFSO4WfhLnpx62e6QJmIZirEEhzV3NVtS2CAnRuaxUrOrg25SiGaRP43ELRBu8WoRJzRNrKJE1XrjxnrDt7A0W0yndyjAvQlq3cKhzyLz4a0OdWz64oMXAG1F3BZUL2LwImeBu4412KePazO6Ivoa3izAXg4YWc2PLjXaVeaKvdAWVm7JFThAhuVXBFzeHQdte4fAvNTDSOfRSTKd0a+UEEXIQzrPk8462HDaBpJ02Xkd0/9tL4yK02j3bBbsjWohRRcPExyEi5BAScuaQMGpVta39XmPLP7vvxTYrqCpLaxwiQqOInTQxR5483jWiut5eDhchAMKaubsK3I4ox8mIRjhHhPx/cYExarVVbX0Kp/NqnK2b2lxNOEeEfLAuK2U9ZoKEPx1eQO6IvmmBaAPfWf+lLYbr4nLGOA6toOPKLjgjyVDePFFxlAjprcoF8AH4AFxfHXIchKGtntUaBBYzyPbqhgR8lAhlKOpwTv96KgpGeJQvqNPwb8L7hD+64yu0ncPtCrwN+/0v4bq+/55fEg194bqC2/NHjNMsIfc4B1XncGMNW/E2KbOX8+1tCfg0EQpQ6xxqHucU6ualkZZy460LRBu4CB8MCWl6kEZGq82Jzflgl9oatBOhtjnj4MA+ocCC7JXOIXf16nbz1iOfzGGpWUFzAnZL2COapXh8Xeoc7vJIt3ibbar5YEkdQhxoCRcZ3dI6ZBIIJTo6tknLsDEc6QqaM2WLnGkJhS0SsnO4niSmbt4cA5ksOCtoUcBuCZfIO4c1E7FSOQS6eXOgXtYXiPY40xIuMmRImZaVKuzmLcF0Gs0RHGsJJQ+t6HYOkRVrbzdvjk4+y84KGhWwW0JK7s5hYki7NcO60au+ry8QxeEiLDM6tBOcUvQgTTWcQ5jqCho1ZYsc644CoUd614peSOXdAs8jq815m0iqWS34RnYF7JaQkmhZafgLpNf5Rg8A4PHKvkB0CBdhlZXJxrs2QsHt/DzvOZHZ97JryhY5XITy68gqy9l+l2IpkaOoOtkXNS3gw0W4heuyXSf6dG3dua/OgYuQngMVOKi6A3OAk1dk1tqSsc/QSMMh9W/Z1o3mA0EZmcUtIY7KhqZDwAylHPniOnARUmKmSeZXnebDPrThIuyAr0yq69yOoZRDso6fV4jwja3yawYwDyjZV4hQgP1VQaXq3tj8jeMi7POtSfVavKeeqVRdTleHrtK3iJCvSZarQ0ZUl3NC5nPyFhGaxKzqnCFchCh+HulzqpC4JT5XdTVjeIYpW+RFIiR3ighCO1d1ORrzXwcvEiEtMzXg9QtTfLC0iIsQy28FKZ7Xq66NC/LmXSKkaonn//bl66scexEY5F0iJKF8sm2NQ+oJJe6UJrgIh/mOkdZ/djC4DgOvEyH9GF2iyFNPjtHEYQJ+nQhX+JT2QDeWszltDtPSNCefO0qL1xhyJP9UgWbeKEIve9Oc1xq+UYQTnFfwSvAGEVyEGFyBrLgOXypCfMG7AgV4eXG8VISOowcXYYsj212dvNkpfa8Iu6XuChTmtSXyXhE6jhJchGVObXSV806n9NUirBW5K3AjLyyUV4uwyMGFbYW32UMDIozLY7RsXlWW76FmKlce34gBEd58Pp8775KL8DHcNhRs0ui6GVTCq8pF+1amkPvxPsC7eMhL5eySNgdy52etCY6rSvup5BF5VItwThVJ/ubZXQzTFaiQXIehNENDXLwn/tj4KWajj6pXhLHdC85JXAaYk2Qx0nrbMIA54kKMq0S4IfGSzDWmekWYZGVRco1fJ3ApmqPoi4aL204mNySlrEGxekV4k/QDY5KWb6UJ1FASzihDJV4cRyBvx+fQLsKYYt+g+KtzPO1+YHInlPxYPY6rahF2h1i6j+TfKMl3Z47Y1YSKOxoI4+rxN0kIGtArwng8BqIsazdgEwMzjiES7RVrRW3QLn8k+WYXekXYcD6Z5gkdo2AmHgpnVapRo14Rxlgfg3b4iD2mfM4wV1rO9upkQ4T5JOF9sT37nO3EHb9QT4oVo7ZIgzmBfWyIEDkO5ryWpIdiq5LYEGENzNJtVasEnXWKhZ4v7SgunxJI3gSWGgzHORIzW5kc51RchI6zGReh42zGReg4m/kf4lSWGCU1HWMAAAAASUVORK5CYII=;" parent="1" vertex="1">
                    <mxGeometry x="370.89" y="250" width="138.23" height="117.5" as="geometry"/>
                </mxCell>
                <mxCell id="26" value="一番苦手な分野の解説や参考資料など" style="rounded=0;whiteSpace=wrap;html=1;fontSize=12;" parent="1" vertex="1">
                    <mxGeometry x="347.36" y="610" width="372.64" height="70" as="geometry"/>
                </mxCell>
                <mxCell id="27" value="●●さん|logout" style="ellipse;whiteSpace=wrap;html=1;fontSize=12;" parent="1" vertex="1">
                    <mxGeometry x="620" y="110" width="100" height="50" as="geometry"/>
                </mxCell>
                <mxCell id="28" value="評価( メニュー画面と同じ )" style="rounded=0;whiteSpace=wrap;html=1;" parent="1" vertex="1">
                    <mxGeometry x="352.36" y="540" width="357.64" height="57.5" as="geometry"/>
                </mxCell>
                <mxCell id="29" value="" style="rounded=0;whiteSpace=wrap;html=1;" parent="1" vertex="1">
                    <mxGeometry x="250" y="235" width="80" height="350" as="geometry"/>
                </mxCell>
                <mxCell id="30" value="java" style="text;html=1;strokeColor=none;fillColor=none;align=center;verticalAlign=middle;whiteSpace=wrap;rounded=0;fontStyle=0;fontSize=15;" parent="1" vertex="1">
                    <mxGeometry x="250" y="250" width="80" height="60" as="geometry"/>
                </mxCell>
                <mxCell id="31" value="css" style="text;html=1;strokeColor=none;fillColor=none;align=center;verticalAlign=middle;whiteSpace=wrap;rounded=0;fontStyle=0;fontSize=12;" parent="1" vertex="1">
                    <mxGeometry x="250" y="310" width="80" height="60" as="geometry"/>
                </mxCell>
                <mxCell id="32" value="javascript" style="text;html=1;strokeColor=none;fillColor=none;align=center;verticalAlign=middle;whiteSpace=wrap;rounded=0;fontStyle=0;fontSize=12;" parent="1" vertex="1">
                    <mxGeometry x="250" y="358.75" width="80" height="60" as="geometry"/>
                </mxCell>
                <mxCell id="33" value="" style="shape=image;verticalLabelPosition=bottom;labelBackgroundColor=#ffffff;verticalAlign=top;aspect=fixed;imageAspect=0;image=data:image/jpeg,/9j/4AAQSkZJRgABAQEASABIAAD/2wBDABALDA4MChAODQ4SERATGCgaGBYWGDEjJR0oOjM9PDkzODdASFxOQERXRTc4UG1RV19iZ2hnPk1xeXBkeFxlZ2P/2wBDARESEhgVGC8aGi9jQjhCY2NjY2NjY2NjY2NjY2NjY2NjY2NjY2NjY2NjY2NjY2NjY2NjY2NjY2NjY2NjY2NjY2P/wAARCAScAzQDASIAAhEBAxEB/8QAGwABAQACAwEAAAAAAAAAAAAAAAUDBAECBgf/xABTEAEAAQICAgkNCwoFBQEBAQAAAQIDBAUREgYTFiExUVSU0RQVNTZBVWFzdJKTssEiMkRkZXF1gZGz4QcjMzRCUlNiobFWcoKi0iRDY8LwJfGj/8QAGAEBAQEBAQAAAAAAAAAAAAAAAAEDAgT/xAAjEQEBAAICAwEAAgMBAAAAAAAAAQIRITEDEkFRE2EiQnFS/9oADAMBAAIRAxEAPwD34AAAAAAAAAAAAAAAAAAAAAAAAAAAAAAAAAAAAAAAAAAAAAAAAAAAAAAAAAAAAAAAAAAAAAAAAAAAAAAAAAAAAAAAAAAAAAAAAAAAAAAAAAAAAAAAAAAAAAAAAAAAAAAAAAAAAAAAAAAAAAAAAAAAAAAAAAAAAAAAAAAAAAAAAAAAAAAAAAAAAAAAAAAAAAAAAAAAAAAAAAAAAAAAAAAAAAAAAAAAAAAAAAAAAAAAAAAAAAAAAAAAAAAAAAAAAAAAAAAAAAAAAAAAAAAAAAAAAAAAAAAAAAAAAAAAAAAAAAAAAAAAAAAAAAAAAAAAAAAAAAAAAAAAAAAAAAAAAAAAAAAAAAAAAAAAAAAAAAAAAAAAAAAAAAAAAAAAAAAAAAAAAAAAAAAAAAAAAAAAAAAAAAAAAAAAAAAAAAAAAAAAAAAAAAAAAAAAAAAAAAAAAAAAAAAAAAAAAAAAAAAAAAAAAAAAAAAAAAAAAAAAAAAAAAAAAAAAAAAAAAAAAAAAAAAAAAAAAAAAAAAAAAAAAAAAAAAAAAAAAAAAAAAAAAAAAAAAAAAAAAAAAAAAAAAAAAAAAAAAAAAAAAAAAAAAAAAAAAAAAAAAAAAAAAAAAAAAAAAAAAAAAAAAAAAAAAAAAAAAAAAAAAAAAAAAAAAAAAAAAAAAAAAAAAAAAAAAAAAAAAAAAAAAAAAAAAAAAAAAAAAAAAAAAAAAAAAAAAAAAAAAAAAAAAAAAAAAAAAAAAAAAAAAAAAAAAAAAAAAAAAAAAAAAAAAAAAAAAAAAAAAAAAAAAAAAAAAAAAAAAAAAAAAAAAAAAAAAAAAAAAAAAAAAAAAAAAAAAAAAAAAAAAAAAAAAAAAAAAAAAAAAAAAAAAAAAAAAAAAAAAAAAAAAAAAAAAAAAAAAAAAAAAAAAAAAAAAAAAAAAAAAAAAAAAAAAAAAAAAAAAAAAAAAAAAAAAAAAAAAAAAAAAAAAAAAAAAAAAAAAAAAAAAAAAAAAAAAAAAAAAAAAAAAAAAAAAAAAAAAAAAAAAAAAAAAAAAAAAAAAAAAAAAAAAAAAAAAAAAAAAAAAAAAAAAAAAAAAAAAAAAAAAAAAAAAAAAAAAAAAAAAAAAAAAAAAAAAAAAAAAAAAAAAAAAAAAAAAAAAAAAAAAAAAAAAAAAAAAAAAAAAAAAAAAAAAAAAAAAAAAAAAAAAAAAAAAAAAAAAAAAAAAAAAAAAAAAAAAAAAAAAAAAAAAAAAAAAAAAAAAAAAAAAAAAAAAAAAAAAAAAAAAAAAAAAAAAAAAAAAAAAAAAAAAAAAAAAAAAAAAAAAAAAAAAAAAAAAAAAAAAAAAAAAAAAAAAAAAAAAAAAAAAAAAAAAAAAAAAAAAAAAAAAAAAAAAAAAAAAAAAAAAAAAAAAAAAAAAAAAAAAAAAAAAAAAAAAAAAAAAAAAAAAAAAAAAAAAAAAAAAAAAAAAAAAAAAAAAADzODzPPsxi7ewWFwEWabtdunba6oq9zOjuQ9Mg7D+xF3yq960g52zZTybKvSV9Btmynk2Vekr6F0BC2zZTybKvSV9Btmynk2Vekr6F0BC2zZTybKvSV9Btmynk2Vekr6F0BC2zZTybKvSV9Btmynk2Vekr6F0BC2zZTybKvSV9Btmynk2Vekr6F0BC2zZTybKvSV9Btmynk2Vekr6F0BC2zZTybKvSV9Btmynk2Vekr6F0BC2zZTybKvSV9Btmynk2Vekr6F0BC2zZTybKvSV9Btmynk2Vekr6F0BC2zZTybKvSV9Btmynk2Vekr6F0BC2zZTybKvSV9Btmynk2Vekr6F0BC2zZTybKvSV9Btmynk2Vekr6F0BC2zZTybKvSV9Btmynk2Vekr6F0BC2zZTybKvSV9Btmynk2Vekr6F0BC2zZTybKvSV9Btmynk2Vekr6F0BC2zZTybKvSV9Btmynk2Vekr6F0BC2zZTybKvSV9Btmynk2Vekr6F0BC2zZTybKvSV9Btmynk2Vekr6F0BC2zZTybKvSV9Btmynk2Vekr6F0BC2zZTybKvSV9Btmyrk2Vekr6F0BC2zZVybKvSV9Btmyrk2Vekr6F0BC2zZVybKvSV9Btmynk2Vekr6F0BC2zZTybKvSV9Btmynk2Vekr6F0BC2zZTybKvSV9Btmynk2Vekr6F0BC2zZTybKvSV9Btmynk2Vekr6F0BC2zZTybKvSV9Btmynk2Vekr6F0BC2zZTybKvSV9Btmynk2Vekr6F0BC2zZTybKvSV9Btmynk2Vekr6F0BC2zZTybKvSV9Btmynk2Vekr6F0BC2zZTybKvSV9Btmynk2Vekr6F0BC2zZTybKvSV9Btmynk2Vekr6F0BC2zZTybKvSV9Btmynk2Vekr6F0BC2zZTybKvSV9Btmynk2Vekr6F0BC2zZTybKvSV9Btmynk2Vekr6F0BC2zZTybKvSV9Btmynk2Vekr6F0BC2zZTybKvSV9Btmynk2Vekr6F0BC2zZTybKvSV9Btmynk2Vekr6F0BC2zZTybKvSV9Btmynk2Vekr6F0BC2zZTybKvSV9Btmynk2Vekr6F0BC2zZTybKvSV9Btmynk2Vekr6F0BC2zZTybKvSV9Btmynk2Vekr6F0BC2zZTybKvSV9Btmynk2Vekr6F0BC2zZTybKvSV9Btmynk2Vekr6F0BC2zZTybKvSV9Btmynk2Vekr6F0BC2zZTybKvSV9Btmynk2Vekr6F0BC2zZTybKvSV9BlmZ5jVnVeWZnYw1FcYbb6arFUzGjW1dG+uoEdv0/RcfegvgAAAAAAAAAIOw/sRd8qvetK8g7D+xF3yq960gvAADzedW7uM2RYHAxjMXhrVVi5XPU13a5mY0aGfcxHfvOueT0AuiFuYjv3nXPJ6DcxHfvOueT0AuiFuYjv3nXPJ6DcxHfvOueT0AuiFuYjv3nXPJ6DcxHfvOueT0AuiFuYjv3nXPJ6DcxHfvOueT0AuiFuYjv3nXPJ6DcxHfvOueT0AuiFuYjv3nXPJ6DcxHfvOueT0AuiFuYjv3nXPJ6DcxHfvOueT0AuiFuYjv3nXPJ6DcxHfvOueT0AuiFuYjv3nXPJ6DcxHfvOueT0AuiFuYjv3nXPJ6DcxHfvOueT0AuiFuYjv3nXPJ6DcxHfvOueT0AuiFuYjv3nXPJ6DcxHfvOueT0AuiFuYjv3nXPJ6DcxHfvOueT0AuiFuYjv3nXPJ6DcxHfvOueT0AuiFuYjv3nXPJ6DcxHfvOueT0AuiFuYjv3nXPJ6DcxHfvOueT0AuiFuYjv3nXPJ6DcxHfvOueT0AuiFuYjv3nXPJ6DcxHfvOueT0AuiFuYjv3nXPJ6DcxHfvOueT0AuiFuYjv3nXPJ6DcxHfvOueT0AuiDuYjv3nXPJ6DcxHfvOueT0AvCDuYjv3nXPJ6DcxHfvOueT0AvCDuYjv3nXPJ6DcxHfvOueT0AvCDuYjv3nXPJ6DcxHfvOueT0AvCDuYjv3nXPJ6DcxHfvOueT0AvCDuYjv3nXPJ6DcxHfvOueT0AvCDuYjv3nXPJ6DcxHfvOueT0AvCDuYjv3nXPJ6DcxHfvOueT0AvCDuYjv3nXPJ6DcxHfvOueT0AvCDuYjv3nXPJ6DcxHfvOueT0AvCDuYjv3nXPJ6DcxHfvOueT0AvCDuYjv3nXPJ6DcxHfvOueT0AvCDuYjv3nXPJ6DcxHfvOueT0AvCDuYjv3nXPJ6DcxHfvOueT0AvCDuYjv3nXPJ6DcxHfvOueT0AvCDuYjv3nXPJ6DcxHfvOueT0AvCDuYjv3nXPJ6DcxHfvOueT0AvCDuYjv3nXPJ6DcxHfvOueT0AvCDuYjv3nXPJ6DcxHfvOueT0AvCDuYjv3nXPJ6DcxHfvOueT0AvCDuYjv3nXPJ6DcxHfvOueT0AvCDuYjv3nXPJ6DcxHfvOueT0AvDyedZJXl+T4rF2c5ziq5ZtzVTFWLnR/Z6LLa6ruWYSuudNVVmiqZ450QDaQI7fp+i4+9X0CO36fouPvQXwAAAAAAAAAEHYf2Iu+VXvWleQdh/Yi75Ve9aQXgAQcZ265d5Ld/vC8g4zt1y7yW7/AHheAAAAAAAAAAAAAAAAAAAAAAAAAAAAAAAAAAAAAAAAAAAAAAAAAAAAAAAAAAAAAAAAAAAAAAAAAAAAAAAAAAAABJ2V9rOY+Jlt5T2JwXiKPVhqbK+1nMfEy28p7E4LxFHqwDbQI7fp+i4+9X0CO36fouPvQXwAAAAAAAAAEHYf2Iu+VXvWleQdiHYi75Ve9aQXgAQcZ265d5Ld/vC8g4zt1y7yW7/eF4AAAAAAAAAAAAAAAAAAAAAAAAAAAAAAAAAAAAAAAAAAAAAAAAAAAAAAAAAAAAAAAAAAAAAAAAAAAAAEDE7IaeqasFlNicbiad6qYnRbt/PPsj+gL48nbqzbMNa5fzOMPhqffVWaYopj5p4f6ti3hqYiK7eKze5Ef9zfmJjwafYD0ggWsRjsPRNzDX4zG1R7+1V7m7T/APfMp5dmOGzKzNzDV79M6K6Ko0VUTxTANwAEnZX2s5j4mW3lPYnBeIo9WGpsr7Wcx8TLbynsTgvEUerANtAjt+n6Lj71fQI7fp+i4+9BfAAAAAAAAAAQdh/Yi75Ve9aV5B2H9iLvlV71pBeABBxnbrl3kt3+8LyDjO3XLvJbv94XgAAAAAAAAAAAAAAAAAAAAAAAAAAAAAAAAAAAAAAB1iqmZmImNMcMcTsACfmObYPKto6ruxbi9XqU6dERHhniiAUBKwmc4fF46rD4SKb9unRpvWa6aqadMb2nRwcEx9nGqgAAAAAAAAAAAAAAAAAAAAAAAAAAAAAAA18biacFgb+Kr97ZtzXMfNAPObJszv4jFdZcumqKp0dU3KOGmJ4KI8Mx/QtYWnAUWMmwHubtyY6ou0/sxw6Ia+xymuxg8TmN6iK8Rq7ZNUx765Xv/wBNMQpW7dOGx+K1ata7hsLpqn96qd+ZBkmbejbNSKrFirasNa7ldUb01eyPmd666qbkxfxt6LtMaa9qo00WvndKYqouYOza0fmcPrxp4NPG1K7M1YeIw9vFYnWq17tymdWKuPQDdriqq7RF6um3idH5nFURvV+CfB4GhjcLem/VmGBp6nzPDR+ds/s3afbE/wBGaxFujCTTYuVXsJFWi5aux+cs/MzzVXTa23RrX8Hv6Y/7lqeGPs/sChlmYWszwNvE2d6Kt6aZ4aKo4Yn5m689l2jL9kd7DW9HUuNt7fa0cEVRw6Pnj1XoQSdlfazmPiZbeU9icF4ij1YamyvtZzHxMtvKexOC8RR6sA20CO36fouPvV9Ajt+n6Lj70F8AAAAAAAAABB2H9iLvlV71pXkHYf2Iu+VXvWkF4AEHGduuXeS3f7wvIOM7dcu8lu/3heAAAAAAAAAAAAAAAAAAAAAAAAAAAAAAAAAAAAAaeYTi4wdcZfTbm/OiKZuTopp8P1cTcAee3P3MBRRissvVTmFG/dquzvYnjiri8HEz04y7mmA18uqnD4mxdiL1i7GjRo4aJ4t7gmPAtMddm3Xbroqpiaa40VRxxo0f2B5/L68TXmGHy+1jK8RYwNVdV+/E++7lFuZ7sxE6Z+aHTOMNOBqu5pfx1qcTTVq2Ld21rUan8Omnh0zvb8b/ANT0OGw1jB2abOGtUWrdPBTRGiHSrA4WvF04uuxbqxFFOrTcmN+mPBxAl5NgsZbwWKxdVNrD4/GVRXqVU6abURGimnRGjgj+7NtOyDluXc2r/wCauAwYSm/Rh6KcTXRXd/aqojRT9UM4AAAAAAAAAAAAAAAAAAAAAAAAAAAAAIOzSrU2KY+af3aY/wB0QvJ2f4OcfkeMwtMaaq7U6seGN+P6xAJ9urRYxdOrq02cbbppjR+zFVMQXJi1nWIrufobmi1V9cbzUym/GNyy9tU6bl+zRfp092un30edToUL1u1jKq6NP5nH2o1ao/Zqjg+z2AwW7VVujFWt/qmi3Tbme5qRG9VH1Qz1UV1W9axTejuWdrq0U0/Po7m80bGLu0U2+q/zd61OpTe7m9vTTU2aIruR/wBNZxVGmrfi1c0W6vm08AO2tFWaUWtGtVXE0V1U8E06N/7NEO2X17ZisNMaJq1a6K9HFHAxUaLGi3TcicRMTTqxvxZo7umePedrVO1YS5ctadNymMPh9PDOnu+36gYqI0X8hmmImrXuU0z/ACatXselebt0xf2WYXDWv0WWYeZn55jViPsmfsekBJ2V9rOY+Jlt5T2JwXiKPVhqbK+1nMfEy28p7E4LxFHqwDbQI7fp+i4+9X0CO36fouPvQXwAAAAAAAAAEHYf2Iu+VXvWleQdh/Yi75Ve9aQXgAQcZ265d5Ld/vC8g4zt1y7yW7/eF4AAAAAAAAAAAAAAAAAAAAAAAAAAAAAAAAAAAAAAAAAAAAAAAAAAAAAAAAAAAAAAAAAAAAAAAAAAAAHicRbnY7n9FUzMYK9cmuzMRvU1T763P94WtSjRTYiuKbN2rbMJejgpqnf1ehSx2Bw+YYSvDYq3FduuNExxeGOJ5y3hMfkNNeGv2q8yyqrgmmNNy388e2P6AoXJpquVbdVTh8RVGrdprt61u9o4GGMNYtTO2Yiiimfg+DmfdfX0aHfC46zircRhMxw+It8G14qN+Pr/AAZark2KJnbcvwdP71M69UfNwA61W7dumNvppw1mufc4e3TpruaPma2ZZlGV2OrMTTEYmadTDYenf2uJ9stG5nsTerw+Q2L2PxlW9XiJjTo+vgiFLJtj92nFU5lnF2MRjo95THvLXzcc+EGxsZy67gcFXfxm/jcXVtt7+Xip+qFoASdlfazmPiZbeU9icF4ij1YamyvtZzHxMtvKexOC8RR6sA20CO36fouPvV9Ajt+n6Lj70F8AAAAAAAAABB2H9iLvlV71pXkHYf2Iu+VXvWkF4AEHGduuXeS3f7wvIOM7dcu8lu/3heAAAAAAAAAAAAAAAAAAAAAAAAAAAAAAAAAAAAAAAAAAAAAAAAAAAAAAAAAAAAAAAAAAAAAAAAAAAdaqqaKZqqmIpiN+Z4IdnnsVZjOc+u4G/MzgcFboqrsxOiLtdXBreCIjgBXw+YYK/c2rD4zD3a4/Zou0zP2Q2uCPAlYnIMsxNja+pLNmY95cs0RRVRPcmmY4EHB4jEZ5ibeS4y7Org4r6smidXb9WrUpje7k8Mgu3Kchx+Imiucvv4id6dFVE3P6b7tRseymmdPUFmrwVxrR9kub2QZVfsbTVgMPTR3NS3FM0/NMcCXga81qsYjB28fbt3MBem3Vdv29fbLeiJpmd+N/QC/Zqw1qrqSzNqiqinTtVGiNWPmjghsPnuZYjE4fE05pa2Q4C9ft0xaudT0UTVFqZ351dPutHE9Xl0XcJgr2MxmazjbE24uRXtdNFNNMRp0xq+D+wKsVUzM0xMTNPDEdx2eQ2I5phcRfu13dsjHZlcqu6arcxTMU8FFNXd1Yepi9a2+bEXKNtinW2vTGtFPBp0cQJ+yvtZzHxMtvKexOC8RR6sNTZX2s5j4mW3lPYnBeIo9WAbaBHb9P0XH3q+gR2/T9Fx96C+AAAAAAAAAAg7D+xF3yq960ryDsP7EXfKr3rSC8ACDjO3XLvJbv94XkHGduuXeS3f7wvAAAAAAAAAAAAAAAAAAAAAAAAAAAAAAAAAAAAAAAAAAAAAAAAAAAAAAAAAAAAAAAAAAAAAAAAAAAIWYWcXgM066YKxViLdy3FvE4ejRrTEe9qp45jTMaF0BBr2Q3L1O1ZdleOuYid6Iu2Zt0UT/NM8DUpybGZRGGx+EiMXjKYqjF0aYp26Kp1p1fDE8D1ICFOyPXp1MNlWY3L/BFqrDzRET4ap3ohpYrIsdXsfv0Val7G4jERiL9uKtWmvfj83E8WiIj6nqgHlKsZgqrMWbuxLGzojRqRg6Jpj5p0tnOcFcu5LhMry/DV2bOJroouRTH6G3w1af7PRAPPZ5h7mDxGUYrCYO5ew+Bqqpqs2KdNUUzRqxojwMmR4fEXsxxmbYuxVh6sRq27Nqv31Funj4tM9xdASdlfazmPiZbeU9icF4ij1YamyvtZzHxMtvKexOC8RR6sA20CO36fouPvV9Ajt+n6Lj70F8AAAAAAAAABB2H9iLvlV71pXkHYf2Iu+VXvWkF4AEvNciwObV2q8XRXr2omKaqK5pnRPc3mluLyn416ep6EB57cXlPxr09RuLyn416ep6EB57cXlPxr09RuLyn416ep6EB57cXlPxr09RuLyn416ep6EB57cXlPxr09RuLyn416ep6EB57cXlPxr09RuLyn416ep6EB57cXlPxr09RuLyn416ep6EB57cXlPxr09RuLyn416ep6EB57cXlPxr09RuLyn416ep6EB57cXlPxr09RuLyr41zip6EB57cXlPxr09RuLyn416ep6EB57cXlPxr09RuLyn416ep6EB57cXlPxr09RuLyn416ep6EB57cXlPxr09RuLyn416ep6EB57cXlPxr09RuLyn416ep6EB57cXlPxr09RuLyn416ep6EB57cXlPxr09RuLyn416ep6EB57cXlPxr09RuLyn416ep6EB57cXlPxr09RuLyn416ep6EB57cXlPxr09RuLyn416ep6EB57cXlPxr09RuLyn416ep6EB57cXlPxr09RuLyn416ep6EB57cXlPxr09RuLyn416ep6EB57cXlPxr09RuLyn416ep6EB57cXlPxr09RuLyn416ep6EB57cXlPxr09RuLyn416ep6EB57cXlPxr09RuLyn416ep6EB57cXlPxr09RuLyn416ep6EB57cXlPxr09RuLyn416ep6EB57cXlPxr09RuLyn416ep6EB57cXlPxr09RuLyr41zip6EB57cXlXxrnFRuLyr41zip6EB57cXlXxrnFRuLyr41zip6EB57cXlXxrnFRuLyr41zip6EB57cXlXxrnFRuLyr41zip6EB57cXlXxrnFRuLyr41zip6EB57cXlXxrnFRuLyr41zip6EB57cXlXxrnFRuLyr41zip6EB57cXlXxrnFRuLyr41zip6EB57cXlXxrnFRuLyr41zip6EB57cXlXxrnFRuLyr41zip6EB57cXlXxrnFRuLyr41zip6EB57cXlXxrnFRuLyr41zip6EB5ydhWT1RoqjE1RxTfq0L9q1RZtUWrcatFFMU0xxRHAyACBHb9P0XH3q+gR2/T9Fx96C+AAAAAAAAAAg7D+xF3yq960ryDsP7EXfKr3rSC8ACZnOb05VTh/8Ap7mIuYi5tdu3b0aZnQ0+v+Yf4ex320pH5TuxWD8dPqvmwPsHX/MP8PY77aTr/mH+Hsd9tL4+A+wdf8w/w9jvtpOv+Yf4ex320vj4D7B1/wAw/wAPY77aTr/mH+Hsd9tL4+A+wdf8w/w9jvtpOv8AmH+Hsd9tL4+A+wdf8w/w9jvtpOv+Yf4ex320vj4D7PlWd9XY67gr2Bv4S/atxc1bujfp4O4sPmv5MOy2M8R/7Q+lAAAAAAAAAAAAAAAAAAAAAAAAAAAAAAAAAAAAAAAAAAAAAAAAAAAAAAAAAAAAAAAAAAAAAAAAAAAIEdv0/Rcfer6BHb9P0XH3oL4AAAAAAAAACDsP7EXfKr3rSvIOw/sRd8qvetILwAPE/lO7FYPx0+q+bPpP5TuxWD8dPqvmwAy2aNtu0Ua1NGtMU61U6Ij5/AvYXYrj4zjDYfEWonDXKomcRbnWtzRG/MxV80A84KOMnA386uzb02MDVd3tSNOrRxxDd6k2Nd9cZzWOkEEUMys5daqt9bsVdxETE6+2W9TRxaGS1kGb37VF21l+Irt10xVTVFG9MdwEsZ8Vhr+Dv1WMTaqtXadGmiqNExvMAAAPa/kw7LYzxH/tD6U+a/kw7LYzxH/tD6UAAAAAAAAAAAAAAAAAAAAAAAAAAAAAAAAAAAAAAAAAAAAAAAAAAAAAAAAAAAAAAAAAAAAAAAAAAAgR2/T9Fx96voEdv0/RcfegvgAAAAAAAAAIOw/sRd8qvetK8g7D+xF3yq960gvAA8T+U7sVg/HT6r5s+k/lO7FYPx0+q+bA2sFg8RmGJpw+EtVXbtXBTT/9vQ9PRmlvYpg4y+zXRjsTdnTiaZq02bcfuU+Hjl5O3cuWqta3XVTVo0aaZ0b3AxA9Bicrw2ZYm1Vsfmquq9TNVWEuTEVWtHhnemOJ03G59yGPT2/+SEArY/Y9mmXWqbmLw0W6K64op0XKKtMzwRvT4G7a2ObJYmijqbE00b0b1yNER9rzjnWq45B6fZrhsXhdkl3HV2pt27lcbTXOiYq1aaY4GpuwzvlVvm9v/ihzMzwy4BYxuyLM8fha8Nib9FdqrRrRFming3434jwI4A9r+TDstjPEf+0PpT5r+TDstjPEf+0PpQAAAAAAAAAAAAAAAAAAAAAAAAOlddNu3VXXMU0UxpmZ4IhIs4zNcfbi/g7GFs4erftxiJq1647k6I97/VRx+G6ry/E4bW1dutVW9PFpjQl4TPcHhsNbsZjcpweJtUxRXarjRpmN73O9vxxaAd+vkxZm3OFq64Rc2nqWKo36tGnTp/d0b+ku4rN8FanEYnD4W7YojTcow81a9Eccad6rRxbydNvE1ZruhjC3dpiqLcWdX85NrVmNfV49M8HDohQv7IMHeszbwFcYzE1xq02bdM6dP837sfODnG59hbVm5GHm7cu7XrWtGGuVUVTMaad+I0aOBxlOf2cypsxbwmKiao0V1bRMUUVRG/Gt4OBOv03suuYTBY3GYvD4GxhaKYu4ejeruRvTFUxEzEaIjRG8z5VVg8DZzLH4PGYrF0aNsrouW9Huojhj3MaZneBVwuOqxOZYvDW7cbThoppm5p4a5jTNMfNGj7XOY46cFcwVFNEVdUYiLU+CNWZmf6POW8vnJqMtzO/ts4i5fm5jLka0xTFdM6Y1Y7kTo7jPTcxWKxmBx96m71PXj5izbmnRq29rmmmrR3NM7/1g2sTspwlvE4W3Zov1UXK5i5pw9yJiNWdGiNXf34hdtVRct01xExFVMTEVRomPq7jxleY5tj8dgJjCRVdw92q7Xhos125tRFMxomur3M6Yne0Q9lZr22zRc1KretTE6tUaJp8EgXrtvD2qrtyqKaKY0zLRjObMTG227tiife13KNFMu2c0VV4CqKKJr1aqapojuxExvNXE5lhL1na7NvquqqP0VMcEexzbprhhLOmaM6w8as10XLVqr3t2ujRTLvazazXcotzbu26bm9RXXRopq4tCPViLVFiijDXasRRVvThKo1piOKJ4Y0MuHxVu3Vh6MJiKr1NVdMbRXTpmiPn7mhz7Nr4cddPSuJmKaZmd6Ick70NHkee3VZdOa0WKMTa6l2rWqu6J0RVpiKY08Ed1xVmuPm9jKsLaw92izcm1tVde11UzEaYq4J06eLu6I0cSfVi7VWX5ndu2rs4vNaKow9mLVU6aIiaLccGiO7P1s+dZXawWXV5hdow925bwtqzVResxXTrRVEa/2TMAW8/zOu1haLeCw839NHVFO3TGrE0zP7vueDw6OBt43OsThtWKq8psVzbiZov43RV9Xud+HmsRby3C0X8Vax2U4q5Vq6LHUERG9vaKfdbz0eZ4KrCWa6+uOCwmFiNW3brwtGimNG9TE6YBxk+eXcdTbu3cXl869qa4wdida9wadHDw+DQ74HP7uLxuLt0Zdidote5oqmiKdFUU6aoqmZ0R3Ihq5HgcyoyTB4jDYvDzO001U2qsNETO973X0/Vp0NfG38Xk+Eqy2mLca9ia7l65arr6ou16daKdXgn5/AD0eW5hRj7dUxZu2bluYiu3cp0THFongmPDDUtZ/ZpzHFYLFRNFyzeii3FFFVWtE0xMTOiN7haFrHZjgMiwtqcBXYvWYtWa7lVM3KKaNX3+infnRo0aO5pYsnxWY2cRjcdVhpxmExF2mNstW5t1zq0xGtFueGnucPcBZzjMasvt07VicBar7tOLu6mmPBo6HTKs46vwN2/qWrlyz/28Lei5NW93ODR80trG1YDBf9di7dumreo2zatarwRvRpTsst3MZnl7Nepq8NYnDxYoi5GrVd39OtNPcjuQDnEZ/iLN23bjJ8VNd2dFuibluKqvqiqd6OPgZrec3dp16stv1zFc0zTh66LmroiOGdMaOH+jBirlWW59dxmIw967hr1ii3RdtW5r2nRM6YmI39E6Y+xmu4HB4jY9fs4OqLFi9anRXFMxojRxTv6O5o4t4Gnh9k9eJzGq1hsuxF61FnW0UTbmqKtOjuV6NHB4XordWtbpqmmaJmNOrPDHgeZ2M2b1/Mr+Y1YaxYs7TTYtbTbmim5onTrRExE6OCOD+z1IAAAAAAAAAAAAAAAAAAAACBHb9P0XH3q+gR2/T9Fx96C+AAAAAAAAAAg7D+xF3yq960ryDsP7EXfKr3rSC8ADxP5TuxWD8dPqvmz6ns6rw9unKq8XTFWHpxP5yNXTvaOJI657C+SW+bVf8geDHvOuewvklvm1X/I657C+SW+bVf8AIHgx7zrnsL5Jb5tV/wAjrnsL5Jb5tV/yB4Me8657C+SW+bVf8jrnsL5Jb5tV/wAgeDHvOuewvklvm1X/ACOuewvklvm1X/IHgx7zrnsL5Jb5tV/yOuewvklvm1X/ACBg/Jh2WxniP/aH0p4nYley+/snxleV24t4fqWmNEUau/rcT2wAAAAAAAAAAAAAAAAAAAAAAAAAAAAAAAAAADjRHFDkBxqxxQasR3IcgAADpVRTXTq10xVTxTG87gOldFNdM010xVTPDExvFy3Rdp1blFNUcVUaYdwCI0RogAAAAAAAAAAAAAAAAAAAAAAAAAAAAABAjt+n6Lj71fQI7fp+i4+9BfAAAAAAAAAAQdh/Yi75Ve9aV5B2H9iLvlV71pBeAB4n8p3YrB+On1XzZ9J/Kd2Kwfjp9V82AAAAAAAAAAB7X8mHZbGeI/8AaH0p81/Jh2WxniP/AGh9KAAAAAAAAAAAAABo4nMreHv7RFjEXa4piqYtW9bRAN4Teu0cgx/oDrtHIMf6AFITeu0cgx/oDrtHIMf6AFITeu0cgx/oDrtHIMf6AFITeu0cgx/oDrtHIMf6AFITeu0cgx/oDrtHIMf6AFITeu0cgx/oDrtHIMf6AFITeu0cgx/oDrtHIMf6AFITeu0cgx/oDrtHIMf6AFITeu0cgx/oDrtHIMf6AFITeu0cgx/oDrtHIMf6AFITeu0cgx/oDrtHIMf6AFITeu0cgx/oDrtHIMf6AFITeu0cgx/oDrtHIMf6AFITeu0cgx/oDrtHIMf6AFITeu0cgx/oDrtHIMf6AFITeu0cgx/oDrtHIMf6AFITeu0cgx/oDrtHIMf6AFITeu0cgx/oDrtHIMf6AFITeu0cgx/oDrtHIMf6AFITeu0cgx/oDrtHIMf6AFITeu0cgx/oDrtHIMf6AFITeu0cgx/oDrtHIMf6AFITeu0cgx/oDrtHIMf6AFITeu0cgx/oCnN7e2W6K8Ni7W2VRRTVctasaZ4AUgAAAAAAAAAAAECO36fouPvV9Ajt+n6Lj70F8AAAAAAAAABB2H9iLvlV71pXkHYf2Iu+VXvWkF4AHifyndisH46fVfNn0n8p3YrB+On1XzYAAAAAAFnIMssZhN/b9b83q6IpnRw6ehY3NZfxXPOaexD4X/o9r0YJG5rL+K55xuay/iuecrgMOT4W3kt+u9g9MV106s62/vLHXvGcdHmpoCl17xn/AI/NOveM/wDH5qaApde8Z/4/NOveM/8AH5qaApde8Z/4/NbmU5lfxeJm3d1dGrp3o0cSCqbH/wBfnxc+wHowAAAAAE6x2dxXiaPaop1js7ivE0e0FEAAAAAAAAAAAAAAAAAAABo381wWHu1Wr17Vrp0aY1Z6G8n5lXi5pjDYGiYuXY0bfOjVsxx+GeKAYree4CaZruX6bNmZ0W7l2Yppucerp4m1hcxwWL1+pcVZvbXGmrUridWP/oaF3CXMDey3qLCXMRZwtqu3NNFVMTGmKdHvpjiYasNcxuOxd7GYG/asVYe3RtWvTNVzVqrqmPc1cG/EaAbOGz7A4yuzRhKtuqu6fc06NNMRMRpmOLu/NDYozTDVXtpi3itbTq7+EuxT9uro0MGCw969iOq8ZZizot7VZw8TE7XRPDp0b2mdEcHBENG9k9rE4ui1h8DGGsWrkVXL0zv1xG/q0RE93j3t7gBcnE26cXRhd/bK6JriIjgiNEe2Gw83c64XMRjrlvAYq3drim3h7kVWoiimnfj9ru1TO9o4NC1gbt2/hLVd+zNm7NPu7c/szwT9XEDaAAAAAAAAAAAAAAAAAATs5+A+WW/aop2c/AfLLftBRAAAAAAAAAAAAQI7fp+i4+9X0CO36fouPvQXwAAAAAAAAAEHYf2Iu+VXvWleQdh/Yi75Ve9aQXgAeJ/Kd2Kwfjp9V82fSfyndisH46fVfNgAAAAAAel2IfC/9Htejec2IfC/9HtejAAAG7l1Gm7foqjRO0Vb2jwNmnK7VdNcRttFVO9Gvo357m93ASRQtYC3tFFdcXaq5jWmmjRERHc354OBrYyxGGxNVuJ0xGiY+bQDAAAqbH/1+fFz7EtU2P8A6/Pi59gPRgAAAAAJ1js7ivE0e1RTrHZ3FeJo9oKIAAAAAAAAAAAAAAMV/EWcNRr3rlNFPhBlE7q3E4jewWG0Ufxb3uY+qDrZVe38bibl/wDkj3FH2QDLezPB2Z1ar1M1fu0e6n+jFGOxNyP+nwF2Y47sxR/Rt2MNYw8aLNqij/LDNMxEb+8CfqZrc99dw9mP5KZqn+p1BiKo/PZhfnxcRQ3deZ95H1zwGpp99OnwdwGh1ttzO/iMXdnw3SMss0xtXutWvf8Afz3FKIiOBjq/TW/rBo9aMNT+zdjw03Jc05Zb/wC3jMXR4Kbqi4miJ4YBP6hxdH6LMbmjiroipz/+pajgw1+I+emehu6KqeCdPgk14jeqjVBo9ca7X61gr9rw0xr0x9jYw2Ow2J/Q3qKp4uCfsbMeBrYjA4XE6dus0VTx6NE/aDZE6cFiMP8AqeLq0R/273uqft7hGY1WJinHYeqx/wCSn3VH4AojpbrouURVbqiqmeCaZ3ncAAAAAAAAAAAABOzn4D5Zb9qinZz8B8st+0FEAAAAAAAAAAABAjt+n6Lj71fQI7fp+i4+9BfAAAAAAAAAAQdh/Yi75Ve9aV5B2H9iLvlV71pBeAB5XZpiLeEqynEXaqqbdvFxVVNMRMxGjuQwbs8k5djPQUf8WL8p3YrB+On1XzYH07dnknLsZ6Cj/ibs8k5djPQUf8XzEB9O3Z5Jy7Gego/4m7PJOXYz0FH/ABfMQH07dnknLsZ6Cj/ibs8k5djPQUf8XzEB9LqzjBZto6iv3ru1e+2y3TTo08GjREcTo85sQ+F/6Pa9GAADdjM71PuqaLcXdERNzV35iP8A+OOuFyIqi3btW9aqKpmmJ4YnS0wG5XmFy5Ne2W7VdNUxOrMTojRGiNDBiL9WJu7ZXEROiI3o0RvMQAAAqbH/ANfnxc+xLVNj/wCvz4ufYD0YAAAAACdY7O4rxNHtUU6x2dxXiaPaCiAAAAAAAAAAAA6XLlFqia7lUU0xwzO81sXjabFUWbdM3cRV723T7eKGK1gKr1cXsfVF2uPe2495R9XdBx1VicbvYK3tdr+Pcj1YZbGW2bVe23NN+9+/c3/sjuN11muI3uGeKAdnE1RTwuuiur+WPA5poinggHGmqrgjVjwuYojhnfnwuwAAAx1/pbf1u+mIjwNeL9q7dpi3XTVNM6JiJ4DSbjZAFAAdNrj9n3PzGmunhjTHgdwHWK6Z6HMxExomN7iJpieGHXVqj3tX1SDSuZZFFU3MFcnD3OKn3k/U4ozCqxXFrH29qqnei5HvKuhva+j30aP7FVNF2iaaoprpnhieAHaJiYiY4PA5TJw2IwE6+CnbLPdw9U8H+WfY28Ji7WKo0250TTvVUTGiafqBsAAAAAAAAAAJ2c/AfLLftUU7OfgPllv2gogAAAAAAAAAAAIEdv0/Rcfer6BHb9P0XH3oL4AAAAAAAAACDsP7EXfKr3rSvIOw/sRd8qvetILwAPE/lO7FYPx0+q+bPpP5TuxWD8dPqvmwAAAAAAPT7DqKq+rNSmZ0anBHzvS7Td/hV+aibAsdGD6v025r19r4K9XRo1uJ6/r5HJq/Tz0Al7Td/hV+abTd/hV+aqdfI5NX6eeg6+Ryav089AJe03f4Vfmm03f4VfmqnXyOTV+nnoOvkcmr9PPQCXtN3+FX5ptN3+FX5qp18jk1fp56Dr5HJq/Tz0Al7Td/hV+abTd/hV+aqdfI5NX6eeg6+Ryav089AJe03f4VfmqWQ266MdM1UVUxtc8MfM7dfI5NX6eehuZbmNGLu7XFuuirV079etAKYAAAAACdY7O4rxNHtUU6x2dxXiaPaCiAAlYjOrOH6pmcNia6MLpi7coojVjRETPd4lV4TqLE4iumvFYTFV1XdSb9c4O1rRPutOr7jRo3qeEHosZsiwmDxV7D3KLszZjTXVTq6PexVojf0zvTHcbeW5jazGzVctUV0RRVqzFU0/8ArMvKXsFmOOxNqra8XFXU9M3NFG1Rr6ZmdPBTp0anBxeBf2L03reVzRiab1N2LtczF6mYnfnT3eH6gWgAAAE69i7uIuzh8Bo0xvXL37NHzcctXHZlTdu9TWbk0243rlyiNMz4KWWzjKbFmm1hMHd1Y4NMaIdTC1xfJjG7hMJbwlExRv1Tv1V1cNTNr9ymNKZOKxtfBhqKf89emP6GnH1/961aj+SjT/df464/lnyKWrM++ne4odommmN7RCV1Pfr/AEmMvT/l9y4632J9/FVc/wA1Ur/HP1z/AC35FCvGYej3163Hg1oYKs3wkb1Nya54qaZYacLh7cb1qiIjwO0V6d61RvcfBC+uMT3zrmczmf0WFvT88asMVWYYud6jD26Pnr0/2Zdqmf0lWnwRvQ70000xopiIWSfhu/rX2zMLn7dNv/LT0udpv1fpMTc+qdH9tDYF0jV6gtTPu9NXzu9GFtURMU06NbihnccRejFr3KMXRv2r01U/uzOhxRjYpmKb1d6xV/P7qn7W04mmKo0TETHEmsfsTeU6rLRVdmmKrd63cp+boc7beo9/YmY46J0/0aM4OmirWw9dVir+Tg+x2pxWMw+9dtxeo/et70/Y59PxpPN/6jfoxNqqdGtqzxVbzM0rWMwuK9xpp1v3K40TDJtE0fobk0/yzvw4ss7azKXpsjXi/Vb3r9Gr/NG/DPTMVRppmJjwI6cus0U9ze+Z2AdPd0/zQ1MThKL1cXrNW0Ymngr4/BPHDecTETvTANPCYyblycPiKNqxFP7Pcqjjpbu9wNPG4S1etxpmaa6feTHDTPgdMNiY6pnD39MXoj3M1ftx4Ac4/H4bAU09VVxapuRMRXO9TpiODoeRwudY7CYPA2rF3Wm3TTRcsVUUxMRRb1qo0e+/ZmNM6PBD3gDxWKz7EzRXcpxFdNNyqnUtU0UxVtVdWiJp/amdXRO9oiJ43XD421g8Rh7WExGFopu0xTextjeiine37lE6YprmdEaZ45e3NEcQPB4/NsdFMYqnGWr1uxjdptVbRH8HTrf17nQoYXG37uyLD09c9vwtOvRTcpimKblWimdXe3pn5ul6XE4e1ibM2b1OtROjTGnRwTpj+zOAAAnZz8B8st+1RTs5+A+WW/aCiAAAAAAAAAAAAgR2/T9Fx96voEdv0/RcfegvgAAAAAAAAAIOw/sRd8qvetK8g7D+xF3yq960gvAA8T+U7sVg/HT6r5s+k/lO7FYPx0+q+bAAAAAAA9LsQ+F/6Pa9G85sQ+F/6Pa9GAAAAAAAAAqbH/1+fFz7EtU2P/r8+Ln2A9GAAAAAAnWOzuK8TR7VFOsdncV4mj2gogAAAAAAAJuKu14q9ODw1WrRT+mux+zH7seFkx+IriaMLhv093gn9yn95hxVFGAy+MPY9/cnVie7Mzwysm7pzlfWbYsFTTO2VW4imzp1bdPghtulq3Fq1TRTwUxod21/p551yABodKrmidWmNarijuOs1Tc3qN6nu1dDvTRFEaKYRenWLenfuTp8HchkBdJsAEAAHHE5cJVjkBUAAYruHtXo0XKIlii1iLH6vemaf3Lm/H4NoN/E9YxU5lNHucXZqt/zR7qlnoiiunbMJdp+aJ9zPQ6tavBWpq17em1X+9bnQ59Zf6dTPLH+1C1eiqrUrjUr4p9jMkVVYuinRcppxNEcEx7mqGXCZlRVXtVyZie5rxomPnc3Cxrj5cbwputdUURpn7CqqKadPcdaKZmdevh7kcThqUUzp16+HuRxMGLwlGJp1avczw0Vxw01eBtutcaad76gaeBxVdVVWGxWinEW+HirjjhvNLGYWcRbou2Z1MRb37dXs+Z3wOKjFWdbRqXKZ1a6P3ZBtAAAAAAJ2c/AfLLftUU7OfgPllv2gogAAAAAAAAAAAIEdv0/Rcfer6BHb9P0XH3oL4AAAAAAAAACDsP7EXfKr3rSvIOw/sRd8qvetILwAPE/lO7FYPx0+q+bPquze/ThJyrEV3Jt028VrTVFOto3uJpbssH33v8AM4B83H0jdlg++9/mcG7LB997/M4B83H0jdlg++9/mcG7LB997/M4B83H0jdlg++9/mcG7LB997/M4B5zYh8L/wBHtejOvFnNv0OLrxG1cOtZi3q6f/5/QAAAAAAAAAVNj/6/Pi59iWqbH/1+fFz7AejAAAAAATrHZ3FeJo9qinWOzuK8TR7QUQAAAAAGDFYijC4eq7XwUxvRxz3IZ0yP+vzHTw4fCzojiqr/AABly7DV26ar9/fxF3fq/ljuU/U1q56ozGZ/7dmNWPn7rfxl+MPha7n7sb0eHuNLB2ptYeIq99O/V87TxzU2w8t5mLOA7ZjFP53Ron3Hg7pV+cq1I97HDPsZNEaNEb2hy7nBEREaI3ocg6jmgAgAAAA4ly4ngS9LO3ICoAAAAAAMV+KdTfoiqr9mPCyucLovVzXHvKd6J45TelmO+HTD25wlNE3fezwz3In5lB1mmKqdExpie4wW5nD3ItVfo595PF4GL0yabIArpT7muae5O/DQxtE4PERj7Ue597fpju08f1KFcb2mOGDRFVOiY0xMcAFFVNdEVUzE0zGmJh2TcBM4TE14Cufc+/sT/LxfUpAAAAAJ2c/AfLLftUU7OfgPllv2gogAAAAAAAAAAAIEdv0/Rcfer6BHb9P0XH3oL4AAAAAAAAACDsP7EXfKr3rSvIOw/sRd8qvetILwAPE/lO7FYPx0+q+bPpP5TuxWD8dPqvmwAAAAAAPS7EPhf+j2vRpGwHDW8R1ftlu/Xq7Xo2nRve+43r+tuH5Pj/8AYCOLHW3D8nx/+w624fk+P/2Ajix1tw/J8f8A7Drbh+T4/wD2Ajix1tw/J8f/ALDrbh+T4/8A2Ajix1tw/J8f/sOtuH5Pj/8AYCOqbH/1+fFz7GTrbh+T4/8A2NrLcHasYiardrFUTq6NN3V0f0BVAAAAAATrHZ3FeJo9qinWOzuK8TR7QUQAAAAAaeZX6rGG0Wv01ydS3HhllweHpwuGos0/sxvzxy1LP/VZpXc/7WFjUo/zTw/ZwN+5XFu3VXVvRTGmQTcfVt+MtYePe0e7r9jO1MFE3NfEVx7q7On5o7n9G231rh4++RjuVTvUU++n+kO8zFNMzPBDpap/bnhq/pCOo700xTTFMdxyCoAIs/AcOVNaB1rrij5+5EOmpVX7/ej92ENO03aY3o91PFDj87V3KaId6aYpjRTERDkXhj2uZ4blX1bxFqmnf3/tZDuFnBLyx7TT3NaPrNrmPe3Kvr32QNG2P87T3Kao8G85pu0zOifczxS7uJpiqNExpgOHIxatVv3k6Y/dl3oriuN7emO5xCadgYr96mzamurgjgjjX+ofN1jxFVd25RhrU6Kq/fTH7NKnat02rdNFEaKaY0RDUy7DTaom7d/TXd+rwcUN9nnfka+PH7R0uW6bluaKuCf6O44asGHrnftXPf0f1jjZ2DEUTGi9RHuqO5xxxMtFUV0xVTwTAOzpRvTNHFwO7pXvTFXEDUzOzVcsRes/prE69Htj7Gzhr1OIw9F6j3tcafmZU3B/9Ljr2D4KKvztr5u7AKQAAACdnPwHyy37VFOzn4D5Zb9oKIAAAAAAAAAAACBHb9P0XH3q+gR2/T9Fx96C+AAAAAAAAAAg7D+xF3yq960ryDsP7EXfKr3rSC8ADxP5TuxWD8dPqvmz6T+U7sVg/HT6r5sAAAAAAD1Gwu9ds9WbVcro06mnVq0fvPT9WYrlN7z5eV2IfC/9HtejBn6sxXKb3nydWYrlN7z5YAGfqzFcpvefJ1ZiuU3vPlgAZ+rMVym958nVmK5Te8+WABn6sxXKb3nydWYrlN7z5YAGfqzFcpvefKjkeIvXcbNNy9crp1J3qqtMdxHVNj/6/Pi59gPRgAAAAAJ1js7ivE0e1RTrHZ3FeJo9oKIAAADXxl+MLhLt2f2Kd75+42E7Mfz2JwuFjgqr2yqP5aQZsuw84fB26KvfzGtX88tfNq9am3haeG7O/wCCmFKZ3ka1PVGMu3/2Y9xR80NPHOd/jHy3jTaopimmIjuOw44I09yHbJ0r93XFHcjflkY7Me51p4at9kSLfwAVAAB0qqmN6nRNTmurVje4Z3ohxbo1Y39+qeGU/wCOoUUau/O/Vxu7hyRKAKgTwDjuJelnbkBUAAHSu3p343qo4Jd3COo601afczo1ojghhw9PVuL15/QWJ0U/zVfgYmde7bsW403K/q1aW9g4oow9NuinV1PczTxJbqLJ73+o2QGT0AADWs/mrtVn9mfdUdDZa+KjRRTdp4bc6fqBsExpjQ4iYmImOCXIOtvg1Z4Y3mhmsTaps4yiN/D16Z/yzvS3p9zXE9yd5xdtU3bVdur3tVOrIO8TExExwTwOWjlNdVWBpt1+/szNqr6vw0N4AABOzn4D5Zb9qinZz8B8st+0FEAAAAAAAAAAABAjt+n6Lj71fQI7fp+i4+9BfAAAAAAAAAAQdh/Yi75Ve9aV5B2H9iLvlV71pBeAB4n8p3YrB+On1XzZ9J/Kd2Kwfjp9V82AAAAAAB6XYh8L/wBHtejec2IfC/8AR7XowAAAAAAAAFTY/wDr8+Ln2Japsf8A1+fFz7AejAAAAAATrHZ3FeJo9qinWOzuK8TR7QUQAAAE7Dfns3xV3uWqabVP95UeCE/Jo1sDN6eG9cquT9v4A75nem1hZij9JX7ij55YcNai1Zppp4IjQxYirqjMNEe9sRoj/NP4NqN6IhtJrHTyW+2Wxjve9imP2p0MjHw34/lgqxk4N4BUAADgGO7vxFEftf2FkLca1W2T81LIRGiNEcEBCjjgcgQHHA5DQdwdNso4NaEpHfuDrFyjg1o0uywsAcBIf2db1ymzaqrq4KYd2tbp6txf/gsTv/zVfgk/alvyNjLrFVNM4i9H5273P3Y7kM16NquRfp4OCuPA2XWaYqpmmY3p3mVu7t6ccZjNR2jg3hgwszFNVqrhtzo+ruM6OgABxMRMaJ4HIDBhJ/Nzbnhtzqs7Xj3GMqjuV06fsbAOKo1qdDiidNPhdnT3tzwVA0cN+ZzbFWf2btNN2mP6Sop2M/NZlgbvBFU1Wp+uN5RAAATs5+A+WW/aop2c/AfLLftBRAAAAAAAAAAAAQI7fp+i4+9X0CO36fouPvQXwAAAAAAAAAEHYf2Iu+VXvWleQdh/Yi75Ve9aQXgAeU2c4eu/Zy+KcFdxtNOI012ben3UavBpjged6lw/+BMZzm90PpoD5l1Lh/8AAmM5ze6DqXD/AOBMZzm90PpoD5l1Lh/8CYznN7oOpcP/AIExnOb3Q+mgPmXUuH/wJjOc3ug6lw/+BMZzm90PpoD59gbdu3r7XkV7KtOj9Jcrr2z5taN7R4ONtPQ51hL+K2iLFvW1dOnfiNHAmdaMd/A/3U9INEb3WjHfwP8AdT0nWjHfwP8AdT0g0RvdaMd/A/3U9J1ox38D/dT0g0RvdaMd/A/3U9J1ox38D/dT0g0RvdaMd/A/3U9J1ox38D/dT0g0VTY/+vz4ufYw9aMd/A/3U9LdyfA4nDYua71rVp1JjTpjwcQLgAAAAACdY7O4rxNHtUU6x2dxXiaPaCiAAADWx1e1YC/XxW50fYw2q6cHlFuqf2LUb3h0OM6n/wDKvRHDOrEfbDFmExcxFnDU+8o93XHgjgh1jN1n5MvXF1wdqaLUa/v591V88tlxTGily2vLCTU0Mdvfqrnw6PsZGOx+i08cuVnTIAqAADHT7q9VP7saIZGOz+j08c6UWdMgCoAAOtVUU729pnghzMxEaZ4IY7UafzlXDPB4ISuoRbmrfuTp/ljgd4pppjepiHPA57iK66tMxv0w67XNH6OdH8s8DJHA4UcUzrRwaPA7MdyNXRcp4aeH5nNdym3am5VOimI0kTLpixVyr3Niz+lub1Pgjjb+FsUYaxTbo4KWrltiqqasVdj3dz3sfu09xRcZ35HXix/2oA4btev83iqKu5XGrPsbDBjN61Ff7lUSzgAAAA17/ub1mv8Am1ftbDBjN6zrfu1RLOA61xpp3uGOB2ATs2n/AKO3ej/tXaK/66FFoZrRpy7E09zU1o+pt2atezRX+9TEgyAAJ2c/AfLLftUU7OfgPllv2gogAAAAAAAAAAAIEdv0/Rcfer6BHb9P0XH3oL4AAAAAAAAACDsP7EXfKr3rSvIOw/sRd8qvetILwAAAAAAAAAJWc4urC7Tq27detp9/Tp0cCb12ucnw3o25sk+Df6vYhgoddrnJ8N6M67XOT4b0aeAoRm1yPg+G9G5673eT4bzE4BR673eT4bzDrvd5PhvMTgFHrvd5PhvMOu93k+G8xOAUeu93k+G8xu5Tjq8Tipt1WrVEamnTRTo4kFU2P/r8+Ln2A9GAAAAAAnWOzuK8TR7VFOsdncV4mj2gz4nF2MHRTVfqmnXnVppppmqap0cEREaZ3oa051l1NNM03pq0xM6KLdVU0xE6N+Ij3O/Gjf0cDrm+GruU2Jow1d6Lden81c2u5RvaNNM6YjwaOJMwVnOMBXjL84ScRcxOja5mq3FVGrp0Rc0TEcE8NIPQYTF4fF0VVYa7TcponVmaeDgif7TDYeY2M2sdlmFuWb+W3/z17bIqoqt6tETTTGjRNUTvTE9zgh6cE7OppjBU629E3af7tfC6bs14iqN+9Vp+amOBlz6jXwNFPBpu0w64e57qbNVG13Le9q+DweBrh0w8ncbAONCudQnej6nWz+hp+Z2n3v1Otrft0zweCBdTTuONDkc6gONBoDUK96ir5nW1Gi1T8zmreonRxFG/bpnwDrjTsAOeAA5OGO9v0asd2dDJvQx3p1aaZje0TGlkR1xocOXBTHQbx3HJFunG9oau01Xrlu3c3rFHup/m4obbTqorp0Yqx+komd796niX64utKsXKNG9P9HO3UeH7HXDX6MRZpuUTvTH2MzHWnpllnDHttPFV9htsfu1fYyArXxFWvYrp1Ko3u7G870XPcU+4q4O5BiN7D3P8su1r9FR/lgHG2T/Dq+w2yf4dTIAx69X8KXOvX/D/AKu4DWxM1VYeuKqNWnj08DLFdyY/R/1dcZ+q3PmZaY0UxHgB01rn7kfaabv7tP2sgDTx0VTgL+voj83MRo+ZkwG/gcNP/ip/tDrj9/CX47lNqr+znL+x+G8VT/aAaWLvYi5mdnAWL84eJs1Xa7lNMTVOiYiIjTGju8XEn38ZmWHuXZvYyNpsRoi7ZtU10aY06dtj31O9o4NELeKwGHxkUTfpq1rfvarddVFVPHomnRLWnIcumNEWKqaZp1aqaLtdMVx/NET7r6waWWYzF9V4ejGX6qdu06KJop2uve0xtddPgjgnuKGc/AfLLftc2MnwWGvUV2rVUTbmZt0zcqmi3/lp06KeHuQ4zn4D5Zb9oKIAAAAAAAAAAACBHb9P0XH3q+gR2/T9Fx96C+AAAAAAAAAAg7D+xF3yq960ryDsP7EXfKr3rSC8AAAAAAAAACJsk+Df6vYhrmyT4N/q9iGAAAAAAAAAqbH/ANfnxc+xLVNj/wCvz4ufYD0YAAAAACdY7O4rxNHtUU6x2dxXiaPaCiAAACdnW9l81cGpXTP9Yd8wws3Ii9Z9zet8E8ccTnN6NfLMRTxU6fs3/Y2LVW2WKK+5VTE/0XG+t25yxmU00MNfi9b06NWqN6qme5LMw4vD10V9UYeNNdO9co/fh3s3KL1uK6J0xLbizceXmX1rux2P0VPgZGOzva1PFUjr4yAKgABo0xoY7H6KPBvMjHb3q66fDphFnTIAqAAOtdOtRNLi1VrURp4Y3pd3SadFetTxb8cadOpzw7jrRXTVG9w8TsQvHDiOA+ZzHA61100cPDxQfD64uVatG9wzvQ7UU6tEU8UOtEVT7qrRp7kcTuQs44asVdQYjbP+xcn3cfuzxq0TExvNGuimuiaao00zvaHTAXarFycJdng/RVT3Y4vqTKbmzx5et9fimAyelr4z9WqiOGdEQ2IjRGiO4173ur1m3xTrT9TYAAAABr4z9WqjjmI/q2GviN+bNHHXH9GwAcEDpc7lPGDWx06uW4mqe7bq/sy4ONXB2KeK3TH9GtnU6Mru0xw1aKY+2G/TTFNMUxwRGgHIACdnPwHyy37VFOzn4D5Zb9oKIAAAAAAAAAAACBHb9P0XH3q+gR2/T9Fx96C+AAAAAAAAAAg7D+xF3yq960ryDsP7EXfKr3rSC8AAAAAAAAACJsk+Df6vYhrmyT4N/q9iGAAAAAAAAAqbH/1+fFz7EtU2P/r8+Ln2A9GAAAAAAnWOzuK8TR7VFOsdncV4mj2gogAAAx3qNssXLf71M0/0a+UV7ZlmHnip1fs3vY3E7LI2u5i8N/DvaYj+Wd+Ab1XuaonuTvJmJszgbs4i1H5ir9JTH7PhhVqjTTodI0V0aKo8Ew6xy04zw9o1KaoqpiaZiYng0Okb1+Y/ejSwVUTl96KPg1c+5n9yeL5me5vTRXxToaa+x58fysgCgAAx1+5rpr7nBLI4qpiqmaZ4JFjkdLU72rPvqd53DWgAABF/qOtVumrhjf44ddrrjguTo8MMgaTbHNFU/tzEcUO1Numjgjf43McDkkW0AVJwMOJsbdb3p1a6d+irilmCXRZLHbAYnqi1MVxq3KN6unibaRfpqsXIxVmNNVO9XT+9S3ZxEXbFG0zpm7vUzxQzzx1zOmniz3/jXbD+7uXL3c97T80Nl1t0Rbopop4IjQ7OGwAAADXn3WMpjuUU6ftbDXw3upuXf3qtEfNDYAdKd+uZ7kb0O1U6tMyUU6tMQCfmnu6sJZ/fvxMx4I4VFOr/ADmd2qe5YtTV9c739lEAABOzn4D5Zb9qinZz8B8st+0FEAAAAAAAAAAABAjt+n6Lj71fQI7fp+i4+9BfAAAAAAAAAAQdh/Yi75Ve9aV5B2H9iLvlV71pBeAAAAAAAAABPzPCUYratbbPc6dGpTp4mh1otfGfRwy7Iq6qOp9SqaffcE6OJG267/Er84FTrRa+M+jg60WvjPo4S9uu/wASvzjbrv8AEr84FTrRa+M+jg60WvjPo4S9uu/xK/ONuu/xK/OBU60WvjPo4OtFr4z6OEvbrv8AEr84267/ABK/OBU60WvjPo4OtFr4z6OEvbrv8Svzjbrv8SvzgVOtFr4z6OG3luAow2ImunbtOro93TohA267/Er85SyG5XVjpiquqY2ud6Z+YHoQAAAAAE6x2dxXiaPaop1js7ivE0e0FEAAABOn/p86pngpxNvV/wBVP4KLQzaiepdvoj3eHqi5H1cP9Ab7p7254Ki3XTct010b9NURMfM5rjTTvcMcAOl2zRetVW66YmmqNEwlUxVh7nUl+dMTH5qvjjiWYnTESwYrDUYqzNure4pjuS6wy1xemXkw3zO2taq1qI443pd2ph667d6qxfjRcj7J8MNtr0yABAAGO5ExMV08McMccO9MxVTExwOWLVm3Xpp97PDHEnTqc8Mo4pmKo0xvuQ64AFcgAOIcuIcpOlvYAqAOKpimnTM6IFjiqqKadM70Q17FcYK/TNVEU2bm9p/cnoZqdaudad6nuQ5uW6btubdcaYlJ+XpbxzioRvuU3Lr9VNc4W/Pu6I9zP71Kkyyx1dNsMplNgCOxhxNepanV99V7mlma/wClxP8AJa/uDNaoi3bpoj9mNDsAOlW/XFPFvu7pb39NXG18xv8AU2Bu10++0atOjjnegGHK/wA5dxeK7ly5q0/5ad6FFgwViMNhLVmP2KYifnZwAAE7OfgPllv2qKdnPwHyy37QUQAAAAAAAAAAAECO36fouPvV9Ajt+n6Lj70F8AAAAAAAAABB2H9iLvlV71pXkHYf2Iu+VXvWkF4AAAAAAAAAETZJ8G/1exDXNknwb/V7EMAAAAAAAABU2P8A6/Pi59iWqbH/ANfnxc+wHowAAAAAE6x2dxXiaPaop1js7ivE0e0FEAAAB1qpiqmaZjTExomHYBPyqZt03cHX77D1aI8NM8Cgm46OpMXZxsb1H6K7/lngn6lIHSn3Nc09yd+Hd1rjeiqP2XaN+N4GrisLF6Iqp3rlHvZ9jXtXNfTE71dO9MKSbmNiqiqMTYj3UcMcbvC/GWePG4yDHYvU37cV0/ZxMjRjAAUcDlF6YptzTOta3uOnuO1FyKt73tXFLu610U1xvwaN/rsMWrco97OtHFJt0R7+maTZ6/jKOsV0TwVQ7KmnEOXDia6I4aoSLY7DHtsT7ymav7Grcq99OrHFSbTTmq5FO9G/VxQ4pomZ1rnD3I7kO1NFNEaKY0Owv/ABUYMTZm5TFVudW7b36JbWBxUYmzrTGrXG9VTxS6NW5rYW/wBVW40xwXaY7scf1JZuEvrdxYHS3XTcopromJpmN6YduCPBDF6WO/c2q3ve+nepjwli3tVqKe7wzPhY7X567t0+8p3qI9rZFHW573RHd3nZ0jfueCneB3iNEaE7Ef8AU5nZsR7yxG21/P8Asw3b12ixZru171NEaZamV2qqbFV+7H53ETr1eCO5H2A3wAAAE7OfgPllv2qKdnPwHyy37QUQAAAAAAAAAAAECO36fouPvV9Ajt+n6Lj70F8AAAAAAAAABB2H9iLvlV71pXkHYf2Iu+VXvWkF4AAAAAAAAAETZJ8G/wBXsQ1zZJ8G/wBXsQwAAAAAAAAFTY/+vz4ufYlqmx/9fnxc+wHowAAAAAE6x2dxXiaPaop1js7ivE0e0FEAAAAAHS9aov2arVcaaao0S08tu1RRXhL0/ncPOr/mp7k/Y307MLdVqujG2Y012d6umP2qOL6gUXSje008XAWrlF61TctzppqjTEle9MVcW8Du4mImNExvOQEXE2qsBf223Ezaq99DaoqproiqmdNM8DcuW6blE0VRvSlRZuYLE7XEa1mud7R3GuOW5qvPnh63c6bbgcqnQArkAAAB1m3RP7MfY67Tb/dZA1F3XTaqJ3pp4OBzFuiOCmPsdhJFtAFcgAAAB3B1rrpt0TVXMRTAdOML/wBNXNEfoZ34j9z8GXbYxcatrTtX7VXBp8ENKxt2MvxNGm3Zp/r/APcSnbiLPuNERT3JhnnxW3j6ZYiIiIiNEQ5Bw1cVTq06eJxRGimONxXv1U0/Ww4zExhMPNzRpq97RT+9PcgGti/+txlGDp37dvRcveylSamX4acNZ03J1r1yda5V4W2AAAAAnZz8B8st+1RTs5+A+WW/aCiAAAAAAAAAAAAgR2/T9Fx96voEdv0/RcfegvgAAAAAAAAAIOw/sRd8qvetK8g7D+xF3yq960gvAAAAAAAAAAibJPg3+r2Ib1GZWbd3a9exRd0adGtd1NHA0+pLHIbPOpBDFzqSxyGzzqTqSxyGzzqQQxc6kschs86k6kschs86kEMXOpLHIbPOpOpLHIbPOpBDFzqSxyGzzqTqSxyGzzqQQ1TY/wDr8+Ln2NjqSxyGzzqWxl9i1bv6aMNbtTq8NN/X/oCmAAAAAAnWOzuK8TR7VFOsdncV4mj2gogAAAAAAAl2/wD83FbTP6ren83Pcoq4vmVJjTGhixFi3ibNVq7TppqhqYO/cs3eo8VP5ymPzdf8SnpBvW+DRPDG87Ok+5rie5O87TMRGmeCAJmKY0zwMU29uidfep0b0OYjbJ1qvexwQygjXLd7A1b0TcscXF83Qz2btF6jWt1aY/soVUxVTomImOJNxOXVUV7dhJ1auJpjnLxXny8dnOLMNaxiorna7tO13OLuT8zZaa04AEAAAAABItAFQAABju3YtxvRpqngpgC9eosW9audEdyONr2cPdx1yK7satuOCnuR+LPh8vquXIvYqd/uU8SjTTFMRFMaIjuQ4ueuI7x8e+ci3bptURTRGiHMxExomN5yM3oYombc6tXve5PEykxExongYatNqNHDTPB4AcxVERVXVMRTHd4oho4SmcfierLkaLNG9Ypn1nW5pzG9OHt6YwtqdF2qP25/djwKdNMU0xTTERERoiI7gOwAAAAACdnPwHyy37VFOzn4D5Zb9oKIAAAAAAAAAAACBHb9P0XH3q+gR2/T9Fx96C+AAAAAAAAAAg7D+xF3yq960ryDsP7EXfKr3rSC8AAAAAAAAACJsk+Df6vYhrmyT4N/q9iGAAAAAAAAAqbH/wBfnxc+xLVNj/6/Pi59gPRgAAAAAJ1js7ivE0e1RTrHZ3FeJo9oKIAAAAAAADWxmEoxdrVmdWunforjhplsgNDC4qquqcJi4ijE0x9VcccNiJ15jX3qY4I43XGYSjF24irTTXTv0V08NMsGHxddFyMLjoim7+zX+zc+bw+AFAdNTR72dU01U8NOn5gdxxTVTPBLkGvfwlrERorpjTxw1K6bmEj857u3+9xKbjRExo7izLTm4ytCmumuPczEuzBicvqtTtmE+u1PBPzcTpYvTc0001aK6eG3cjfhrOtx57xdVtDHr10++tz/AKSL1vj0fPBs0yDrFyj9+n7XOtTxwpo7rlxpjjjQ416I/ap+1ItjsMe3UdydPzQa9c+9tz9e8bTTI61V00cMxDrqV1e+r0eClgmqZu7RhKYqu/tVzwULOS6jm7iatsi1Zo03KuCP/uBu4TC7VGvcmKrs8M9yPmc4TB0Yaje91XV76ueGWyzyynUa4Y2c1yDrNcRvcM8UOGrs4mqKeGXX3dX8sOYppp3/AOsg401Ve9jRHhTb12vGXpw2FrmKaf0t6P2f5afC7XL93MK5sYSZow8b1y/Hd8FLfw9i3hrNNq1TFNFPBAObNqixbpt240U08EO4AAAAAAAJ2c/AfLLftUU7OfgPllv2gogAAAAAAAAAAAIEdv0/Rcfer6BHb9P0XH3oL4AAAAAAAAACDsP7EXfKr3rSvIOw/sRd8qvetILwAAAAAAAAAImyT4N/q9iGubJPg3+r2IYAAAAAAAACpsf/AF+fFz7EtU2P/r8+Ln2A9GAAAAAAnWOzuK8TR7VFOsdncV4mj2govPYvMcwsZrfinD29ptYfW1a7s7/upiJiKaZ354ND0LRxWW2sVdpvTXetXKadXWs3JomaeKdAImbZzj8Nl9O2VYbDYmmKLldEVVVVU+6idGiI0aNEaJ3+NWwOMxF3C3a9Wq/domNEdT14eJjijX4fnbNeBtXMvrwdyq5ctXKJoqmurTVMT4XfEYWjE2ot3KrtNMb+m3dqtz9tMwDSjH3r+CzDVw9VnEYWJp1dMVe61IqjRo+eHW5ir9OJyu1EzrXqK6rlGiI1tFH9N+YbWDy6xgq7lVjbdNydNe2Xq69M6IjT7qZ7kRH1ObOAsWcVdxMRVXfub0111TOrT+7HFHggETb806u6n05hrxTtmppw2iKdOj93/wC0KGNzi3hareGt25uY25q0xZjgpmeDWq4Ij/6G5h8HZsXr12iJm5enTXXVOmfBHgiO5DJfw1u/te2R+iri5To44Bkp06sa2iKtG/o4HYAGHEYa1irU271EVU/2+ZmATIv38umKMVpu4fgpvRG/T/mUKK6a6IqoqiqmeCY4HaYiY0TGmOJPqwN3C1Tcy+qKYnfqsVe8n5uIFCaaZ4YddWqn3s6fBLVw2YWrte03KZsXo/7de99nG3QdNfR76NV3jRPAOu1x+z7n5gcw1cXgreJiJ95cp97XTww2PdxwxFUeAprpne4PAstnTm4yzVSou3cNXFvGRojgpux72ehs70x3NDcuW6LlE0VxE0zwxKZXhr2CnWsabtn+H3afmazKV58sLh10zbXR+5T9jjabf7sOLN+3fo1rc6fBxMi6Jl+Om1UaNXVjQ5i3RH7FP2O3dEkW0jeHFUxTTMzMRENWim5mE6KdNvCxw1cE1/N4F6cb+RzrXMbXNrDTq243q7vF4IUcNh7eFtRbt06I/u7WrduxbiiiIopjgiHbWmfex9csss98Tpvh4/Xm9u7pr9ymNJqaffTp8Hcd4jRwOWrpq1T76dEcUO0UxTwRoc8CfdzHXrmzgbe33I4av2KfnkG3fv2sNam5eriimGhFu/mW/diqxhO5b4Krnz8UeBlsZf8AnIv4uvb7/c0x7mj5ob4OlFFNuiKKKYppp3oiOCHcAAAGjj8fhsBTT1VXFqm5ExFc71OmI4OhvAPm87ThshnbJorxO0xTNFUzbxNr3Gje/eo+yND1eTZdcw96jETZw+FtzY1dqsVTMVzvTrTvRvxo4u6ugAACdnPwHyy37VFOzn4D5Zb9oKIAAAAAAAAAAACBHb9P0XH3q+gR2/T9Fx96C+AAAAAAAAAAg7D+xF3yq960ryDsP7EXfKr3rSC8AAAAAAAAACJsk+Df6vYhrmyT4N/q9iGAAAAAAAAAqbH/ANfnxc+xLVNj/wCvz4ufYD0YAAAAACdY7O4rxNHtUU6x2dxXiaPaCiAAAAAAAAAAAAADBiMLZxNGpetxVHc8HzNTacbg/wBXr6ptR/27k6Ko+aVIBo2czw9dW13dNi5+5djV+xvMd2xav0al23TXTxTDS621Wt/BYm5Yj9yfdUfZIKLiaYnhhP6ozCxvXsJTep/esVeyXanNsJratyqqxV+7domkG5qTHvZ+qTX0e+p0OLd61dj81cor/wAsxLIDQxGApuVbdYq2q9xxwT88MFvETTc2nE0bVd7nFV8ypNET4PmYL+Gpv29S7TFdP2TDvHP5WOXj+4sPddblyi1RNdcxFMMNetgKJ2yqq5Tp0Ub3uvmd8Pgq79cX8VvaPeW+5S74nPxnzeJHS1YqxkxcvxNFj9m33avnUqKZ1YiiIppjgd6aIp4IYruKw9n9Jet0aO5NUQzyy22wwmLLFEd3fnwuyf12s1Tow9F3ET/46N5xFWZXveWrWFp4651qvsjectG/VVTRTrVTFMR3Z4IaNeZ0V1TbwdurE1x+5vUx9ZTldFdUVYu5cxNUfvzopj5ohvUUU26YpopimmOCIjREAn9Q4jF7+Pve4/g2t6n657retWqLNuKLVEUUxwREaGQAAAAAAAAAAAAATs5+A+WW/aop2c/AfLLftBRAAAAAAAAAAAAQI7fp+i4+9X0CO36fouPvQXwAAAAAAAAAEHYf2Iu+VXvWleQdh/Yi75Ve9aQXgAAAAAAAAAaWYYCnHRb1q5o1NOjRH/3E0+sFHKKvNWQEbrBRyirzTrBRyirzVkBG6wUcoq806wUcoq81ZARusFHKKvNOsFHKKvNWQEbrBRyirzTrBRyirzVkBG6wUcoq81sYDKqMHdm5Fya51dXRo0KIAAAAAAAnWOzuK8TR7VFOsdncV4mj2gogAAAAAAAAAAAAAAAAAOtVFNdOrXTFUcUw7ANK5lWCub9WGoj/AC+5/sxxlNun9FicVajipu7yiA0IwGKp95mN3/VTEnUuP75f/wCFLfQM9zanB04a9YuTXtd+uiu3R+1MW69FOj/Nq/0BvzgsbVo1sx06OD8xTvHUF+r9JmF+f8sRSgYLMb2Du2uq8TiK7eHriLtV+iq3rUXI3qtFURwXKdEeCWOrNMVbqt4muvE6LERiL1um3XVTouVadSZiNEalvj4wej602ao/PXcRe8Fd2fYy2stwVmPcYe39caWzTMVUxNMxMTG9odgIiIjRHAAAAAAAAAAAAAAAAAAAnZz8B8st+1RTs5+A+WW/aCiAAAAAAAAAAAAgR2/T9Fx96voEdv0/RcfegvgAAAAAAAAAIOw/sRd8qvetK8g7D+xF3yq960gvAAAAAAAAAAAAAAAAAAAAAAAAAAAAJHVFjDZ5iJv3aLcTZo0a06ONXYq7Fm5Om5aormP3qYkGHrpgOWWPPg66YDlljz4ZOo8Nyez5kHUeG5PZ8yAY+umA5ZY8+DrngOWWPPhk6jw3J7PmQdR4bk9nzIBj654Dlljz4OueA5ZY8+GTqPDcns+ZB1HhuT2fMgGPrngOWWPPg654Dlljz4ZOo8Nyez5kHUeG5PZ8yAY+ueA5ZY8+DrngOWWPPhk6jw3J7PmQdR4bk9nzIBj654Dlljz4OueA5ZY8+GTqPDcns+ZB1HhuT2fMgGPrngOWWPPg654Dlljz4ZOo8Nyez5kHUeG5PZ8yAY+ueA5ZY8+DrngOWWPPhk6jw3J7PmQdR4bk9nzIBj654Dlljz4OueA5ZY8+GTqPDcns+ZB1HhuT2fMgGPrngOWWPPg654Dlljz4ZOo8Nyez5kHUeG5PZ8yAY+ueA5ZY8+DrngOWWPPhk6jw3J7PmQdR4bk9nzIBj654Dlljz4atVeS1X9vqnBTenRO2TFOtvcG/4NDe6jw3J7PmQdR4bk9nzIBp3b+UX9MX7mDu61OpOvqzpp4dHzeB2pxeV0xcppvYWIub9cRVT7re0b/HvRENrqPDcns+ZB1HhuT2fMgGC3mGXW6IooxWHpopiIppiqIiI4nfrngOWWPPhk6jw3J7PmQdR4bk9nzIBj654Dlljz4OueA5ZY8+GTqPDcns+ZB1HhuT2fMgGPrngOWWPPg654Dlljz4ZOo8Nyez5kHUeG5PZ8yAY+ueA5ZY8+DrngOWWPPhk6jw3J7PmQdR4bk9nzIBj654Dlljz4OueA5ZY8+GTqPDcns+ZB1HhuT2fMgGPrngOWWPPg654Dlljz4ZOo8Nyez5kHUeG5PZ8yAY+ueA5ZY8+DrngOWWPPhk6jw3J7PmQdR4bk9nzIBj654Dlljz4OueA5ZY8+GTqPDcns+ZB1HhuT2fMgGPrngOWWPPg654Dlljz4ZOo8Nyez5kHUeG5PZ8yAY+ueA5ZY8+DrngOWWPPhk6jw3J7PmQdR4bk9nzIBj654Dlljz4aOZYvDYirBUWL9u5VGLtzopqid5S6jw3J7PmQ5pw1iiYqpsW6ZjgmKIjQDMAAAAAAAAAAAAgR2/T9Fx96voEdv0/RcfegvgAAAAAAAAAIOw/sRd8qvetK8g7D+xF3yq960gvAAAAAAAAAAAAAAAAAAAAAAAAAAAAJeZZ7g8txFGHvRdru1060U2retOhUeeuxG7mx5LUDJurwPJsdzeTdXgeTY7m8rmrHFBqxxQCHurwPJsdzeTdXgeTY7m8rmrHFBqxxQCHurwPJsdzeTdXgeTY7m8rmrHFBqxxQCHurwPJsdzeTdXgeTY7m8rmrHFBqxxQCHurwPJsdzeTdXgeTY7m8rmrHFBqxxQCHurwPJsdzeTdXgeTY7m8rmrHFBqxxQCHurwPJsdzeTdXgeTY7m8rmrHFBqxxQCHurwPJsdzeTdXgeTY7m8rmrHFBqxxQCHurwPJsdzeTdXgeTY7m8rmrHFBqxxQCHurwPJsdzeTdXgeTY7m8rmrHFBqxxQCHurwPJsdzeTdXgeTY7m8rmrHFBqxxQCHurwPJsdzeTdXgeTY7m8rmrHFBqxxQCHurwPJsdzeTdXgeTY7m8rmrHFBqxxQCHurwPJsdzeTdXgeTY7m8rmrHFBqxxQCHurwPJsdzeTdXgeTY7m8rmrHFBqxxQCHurwPJsdzeTdXgeTY7m8rmrHFBqxxQCHurwPJsdzeTdXgeTY7m8rmrHFBqxxQCHurwPJsdzeTdXgeTY7m8rmrHFBqxxQCHurwPJsdzeTdXgeTY7m8rmrHFBqxxQCHurwPJsdzeTdXgeTY7m8rmrHFBqxxQCHurwPJsdzeTdXgeTY7m8rmrHFBqxxQCHurwPJsdzeTdXgeTY7m8rmrHFBqxxQCHurwPJsdzeTdXgeTY7m8rmrHFBqxxQCHurwPJsdzeXfC7JMDicXaw0UYi3cuzoo221NMTOhZ1Y4oQs+iIzfItEfCp9SQXgAAAAAAAAAAAECO36fouPvV9Ajt+n6Lj70F8AAAAAAAAABB2H9iLvlV71pXkHYf2Iu+VXvWkF4AAAAAAAAAAAAAAAAAAAAAAAAAAAB56729WPJanoXnrvb1Y8lqBfq0xROro06N54fHbIM4s4W1NFyiiuua6Y1qKKZ/l3tM8EzEf3e4qp1qJp4NMaHl7Ow6zTb1b2Ji7q0+4jatWmKtFEROjT/J9ekGvRn+YXtaqiqnRVqUU6lvepqmqmInWnenTr/ZDLgs7zG5leH1bVd7FXrtFEV6aIp36aa5iI3v2dPc3mxhNilvD7RFeLmum1NNUaLUUzM06sxv8XuI3mzgdj8YKxa2rF3IvW7erFc00zEVaKYmYjRxURHzA6Xc+p6lvTtc2dFMbXVVMfv7XVp7kTTV9XAyYXNbVrD4iu/jrGJizRrxtVGpVNMeDTv8Acje3m3by21bwVGG0U11UROrcuURVOtM6dOjg4d/6mHrPt9yqrH4mvE6bVVqmnViimmmrRp0aO7vQDVpzbMLN3EVYjCYenD4bU2ymi7M10RVv8WidEaN7e8DdxGIzS1FyujC4Sq3REzGnEVRMxHg1HWMltzGpViL9Vqate7RMx+eq3tE1To06NERGiNEbzvdyu7di5E5pjaaK9PuaYtaIie5HuAYcRndGDy21jr+Gu02LlmLlVVEa0UTMRopnu+DTo0Mlm/j6sHg79FFi/NdETeppq0cOj3k8G9/XwOacqtxcw83K7ly1haKYs2qtGrTMRo1t6N+f7dx2qyuKLE2cHeuYO3XXNdcWtHd7lOn3v1A79XUXMVfw9mNabFETXXHvaap4Kfn0b/2NbJc2sY3CYWmu9EYu5Zpqqt1UzRNU6saZpiYjTHzbzdw+CsYTCdT2KdSjf8MzM92eOXbA4WnB4HD4aJ1osW6bcVTHDojQDYAAAAAAAAAAAAAAAAAAAAAAAAAAAAAAAAAAQs/7LZF5VPqSuoWf9lsi8qn1JBdAAAAAAAAAAAAQI7fp+i4+9X0CO36fouPvQXwAAAAAAAAAEHYf2Iu+VXvWleQdh/Yi75Ve9aQXgAAAAAAAAAAAAAAAAAAAAAAAAAAAHnrvb1Y8lqeheeu9vVjyWoHoQAAAAAAAAAAAAAAAAAAAAAAAAAAAAAAAAAAAAAAAAAAAAAELP+y2ReVT6krqFn/ZbIvKp9SQXQAAAAAAAAAAAECO36fouPvV9Ajt+n6Lj70F8AAAAAAAAABB2H9iLvlV71pXkHYf2Iu+VXvWkF4AAAAAAAAAAAAAAAAAAAAAAAAAAAB56729WPJanoXnrvb1Y8lqB6EAAAAAAAAAAAAAAAAAAAAAAAAAAAAAAAAAAAAAAAAAAAAABCz/ALLZF5VPqSuoWf8AZbIvKp9SQXQAAAAAAAAAAAECO36fouPvV9Ajt+n6Lj70F8AAAAAAAAABB2H9iLvlV71pXkHYf2Iu+VXvWkF4AAAAAAAAAAAAAAAAAAAAAAAAAAAB56729WPJanoXnrvb1Y8lqB6EAAAAAAAAAAAAAAAAAAAAAAAAAAAAAAAAAAAAAAAAAAAAABCz/stkXlU+pK6hZ/2WyLyqfUkF0AAAAAAAAAAABAjt+n6Lj71fQI7fp+i4+9BfAAAAAAAAAAQdh/Yi75Ve9aV5B2H9iLvlV71pBeAAAAAAAAAAAAAAAAAAAAAAAAAAAAeeu9vVjyWp6FCzPKMdeze1mOX4u1ZuUW5tzFy3rRoBdELqXZN3ywPN56TqXZN3ywPN56QXRC6l2Td8sDzeek6l2Td8sDzeekF0Qupdk3fLA83npOpdk3fLA83npBdELqXZN3ywPN56TqXZN3ywPN56QXRC6l2Td8sDzeek6l2Td8sDzeekF0Qupdk3fLA83npOpdk3fLA83npBdELqXZN3ywPN56TqXZN3ywPN56QXRC6l2Td8sDzeek6l2Td8sDzeekF0Qupdk3fLA83npOpdk3fLA83npBdELqXZN3ywPN56TqXZN3ywPN56QXRC6l2Td8sDzeek6l2Td8sDzeekF0Qupdk3fLA83npOpdk3fLA83npBdELqXZN3ywPN56TqXZN3ywPN56QXRC6l2Td8sDzeek6l2Td8sDzeekF0Qupdk3fLA83npOpdk3fLA83npBdELqXZN3ywPN56TqXZN3ywPN56QXRC6l2Td8sDzeek6l2Td8sDzeekF0Qupdk3fLA83npOpdk3fLA83npBdELqXZN3ywPN56TqXZN3ywPN56QXRC6l2Td8sDzeek6l2Td8sDzeekF0Qupdk3fLA83npOpdk3fLA83npBdELqXZN3ywPN56TqXZN3ywPN56QXRC6l2Td8sDzeek6l2Td8sDzeekF1Cz/stkXlU+pJ1Lsm75YHm89LHTlGbYjMMHiMwx2HuW8LXNyKbVnVmZ0aOMHoQAAAAAAAAAAAECO36fouPvV9Ajt+n6Lj70F8AAAAAAAAABB2H9iLvlV71pXkHYf2Iu+VXvWkF4AAAAAAAAAAAAAAAAAAAAAAAAAAAAAAAAAAAAAAAAAAAAAAAAAAAAAAAAAAAAAAAAAAAAAAAAAAAAAAAAAAAAAAAAABAjt+n6Lj71fQI7fp+i4+9BfAAAAAAAAAAQdh/Yi75Ve9aV5B2H9iLvlV71pBeAAAAAAAAAAAAAAAAAAAAAAAAAAAAAAAAAAAAAAAAAAAAAAAAAAAAAAAAAAAAAAAAAAAAAAAAAAAAAAAAAAAAAAAAAAQI7fp+i4+9X0CO36fouPvQXwAAAAAAAAAEHYf2Iu+VXvWleQdh/Yi75Ve9aQXgAAAAAAAAAAAAAAAAAAAAAAAAAAAAAAAAAAAAAAAAAAAAAAAAAAAAAAAAAAAAAAAAAAAAAAAAAAAAAAAAAAAAAAAAAECO36fouPvV9Ajt+n6Lj70F8AAAAAAAAABB2H9iLvlV71pXkHYf2Iu+VXvWkF4AAAAAAAAAAAAAAAAAAAAAAAAAAAAAAAAAAAAAAAAAAAAAAAAAAAAAAAAAAAAAAAAAAAAAAAAAAAAAAAAAAAAAAAAABAjt+n6Lj71fQI7fp+i4+9BfAAAAAAAAAAQdh/Yi75Ve9aV5B2H9iLvlV71pBeAAAAAAAAAAAAAAAAAAAAAAAAAAAAAAAAAAAAAAAAAAAAAAAAAAAAAAAAAAAAAAAAAAAAAAAAAAAAAAAAAAAAAAAAAAQI7fp+i4+9X0CO36fouPvQXwAAAAAAAAAEHYf2Iu+VXvWleQdh/Yi75Ve9aQXgAAAAAAAAAAAAAAAAAAAAAAAAAAAAAAAAAAAAAAAAAAAAAAAAAAAAAAAAAAAAAAAAAAAAAAAAAAAAAAAAAAAAAAAAAECO36fouPvV9Ajt+n6Lj70F8AAAAAAAAABB2H9iLvlV71pXnn9ytmiqubGa5ph6K65r2uziNWmJnijQD0Ag7l/l3O+d/gbl/l3O+d/gC8IO5f5dzvnf4G5f5dzvnf4AvCDuX+Xc753+BuX+Xc753+ALwg7l/l3O+d/gbl/l3O+d/gC8IO5f5dzvnf4G5f5dzvnf4AvCDuX+Xc753+BuX+Xc753+ALwg7l/l3O+d/gbl/l3O+d/gC8IO5f5dzvnf4G5f5dzvnf4AvCDuX+Xc753+BuX+Xc753+ALwg7l/l3O+d/gbl/l3O+d/gC8IO5f5dzvnf4G5f5dzvnf4AvCDuX+Xc753+BuX+Xc753+ALwg7l/l3O+d/gbl/l3O+d/gC8IO5f5dzvnf4G5f5dzvnf4AvCDuX+Xc753+BuX+Xc753+ALwg7l/l3O+d/gbl/l3O+d/gC8IO5f5dzvnf4G5f5dzvnf4AvCDuX+Xc753+BuX+Xc753+ALwg7l/l3O+d/gbl/l3O+d/gC8IO5f5dzvnf4G5f5dzvnf4AvCDuX+Xc753+BuX+Xc753+ALwg7l/l3O+d/gbl/l3O+d/gC8IO5f5dzvnf4G5f5dzvnf4AvCDuX+Xc753+BuX+Xc753+ALwg7l/l3O+d/gbl/l3O+d/gC8IO5f5dzvnf4G5f5dzvnf4AvCDuX+Xc753+BuX+Xc753+ALwg7l/l3O+d/gbl/l3O+d/gC8IO5f5dzvnf4G5f5dzvnf4AvCDuX+Xc753+BuX+Xc753+ALwg7l/l3O+d/gbl/l3O+d/gC8IO5f5dzvnf4G5f5dzvnf4AvCDuX+Xc753+BuX+Xc753+ALwg7l/l3O+d/gbl/l3O+d/gC8IO5f5dzvnf4G5f5dzvnf4AvCDuX+Xc753+BuX+Xc753+ALwg7l/l3O+d/gbl/l3O+d/gC8IO5f5dzvnf4G5f5dzvnf4AvCDuX+Xc753+BuX+Xc753+ALwg7l/l3O+d/gbl/l3O+d/gC8IO5f5dzvnf4G5f5dzvnf4AvCDuX+Xc753+BuX+Xc753+ALwg7l/l3O+d/gbl/l3O+d/gC8IO5f5dzvnf4G5f5dzvnf4AvCDuX+Xc753+BuX+Xc753+ALyBHb9P0XH3rncv8u53zv8GfLMis5fjKsX1XjMTfqt7VrYm7r6KdOnRG9AK4AAAAAAAAAAAAAAAAAAAAAAAAAAAAAAAAAAAAAAAAAAAAAAAAAAAAAAAAAAAAAAAAAAAAAAAAAAAAAAAAAAAAAAAAAAAAAAAAAAAAAAAAAAAAAAAAAAAAAAAAAAAAAAAAAAAAAAAAAAAAAAAAAAAAAAAAAAAAAAAAAAAAAAAAAAAAAAAAAAAAAAAAAAAAAAAAAAAAAAAAAAAAAAAAAAAAAAAAAAAAAAAAAAAAAAAAAAAAAAAAAAAAAAAAAAAAAAAAAAAAAAAAAAAAAAAAAAAAAAAAAAAAAAAAAAAAAAAAAAAAAAAAAAAAAAAAAAAAAAAAAAAAAAAAAAAAAAAAAAAAAAAAAAAAAAAAAAAAAAAAAAAAAAAAAAAAAAAAAAAAAAAAAAAAAAAAAAAAAAAAAAAAAAAAAAAAAAAAAAAAAAAAAAAAAAAAAAAAAAAAAAAAAAAAAAAAAAAAAAAAAAAAAAAAAAAAAAAAAAAAAAAAAAAAAAAAAAAAAAAAAAAAAAAAAAAAAAAAAAAAAAAAAAAAAAAAAAAAAAAAAAAAAAAAAAAAAAAAAAAAAAAAAAAAAAAAAAAAAAAAAAAAAAAAAAAAAAAAAAAAAAAAAAAAAAAAAAAAAAAAAAAAAAAAAAAAAAAAAAAAAAAAAAAAAAAAAAAAAAAAAAAAAAAAAAAAAAAAAAAAAAAAAAAAAAAAAAAAAAAAAAAAAAAAAAAAAAAAAAAAAAAAAAAAAAAAAAAAAAAAAAAAAAAAAAAAAAAAAAAAAAAAAAAAAAAAAAAAAAAAAAAAAAAAAAAAAAAAAAAAAAAAAAAAAAAAAAAAAAAAAAAAAAAAAAAAAAAAAAAAAAAAAAAAAAAAAAAAAAAAAAAAAAAAAAAAAAAAAAAAAAAAAAAAAAAAAAAAAAAAAAAAAAAAAAAAAAAAAAAAAAAAAAAAAAAAAAAAAAAAAAAAAAAAAAAAAAAAAAAAAAAAAAAAAAAAAAAAAAAAAAAAAAAAAAAAAAAAAAAAAAAAAAAAAAAAAAAAAAAAAAAAAAAAAAAAAAAAAAAAAAAAAP/Z;" vertex="1" parent="1">
                    <mxGeometry x="940" y="90" width="465.59" height="670" as="geometry"/>
                </mxCell>
                <mxCell id="34" value="" style="shape=image;verticalLabelPosition=bottom;labelBackgroundColor=#ffffff;verticalAlign=top;aspect=fixed;imageAspect=0;image=data:image/png,iVBORw0KGgoAAAANSUhEUgAABCgAAAOyCAYAAACxMuRXAAAACXBIWXMAAC4jAAAuIwF4pT92AAAgAElEQVR4nOzdPXJbSZqo4YOO8saQKggYtEStQJR/IwStQCwDtqgVDGsDU9JsoKkVFGXDaNYKWoq4flMrGNKigcO4kjE2JrImWfcUSz8gkMB3fp4ngqGOimqKyMNSCC8zvxwtl8sKAAAAINLfrD4AAAAQTaAAAAAAwgkUAAAAQDiBAgAAAAgnUAAAAADhBAoAAAAgnEABAAAAhBMoAAAAgHACBQAAABBOoAAAAADCCRQAAABAOIECAAAACCdQAAAAAOEECgAAACCcQAEAAACEEygAAACAcAIFAAAAEE6gAAAAAMIJFAAAAEA4gQIAAAAIJ1AAAAAA4QQKAAAAIJxAAQAAAIQTKAAAAIBwAgUAAAAQTqAAAAAAwgkUAAAAQDiBAgAAAAgnUAAAAADhBAoAAAAgnEABAAAAhBMoAAAAgHACBQAAABBOoAAAAADCCRQAAABAOIECAAAACCdQAAAAAOEECgAAACCcQAEAAACEEygAAACAcAIFAAAAEE6gAAAAAMIJFAAAAEA4gQIAAAAIJ1AAAAAA4QQKAAAAIJxAAQAAAIQTKAAAAIBwAgUAAAAQTqAAAAAAwgkUAAAAQDiBAgAAAAgnUAAAAADhBAoAAAAgnEABAAAAhBMoAAAAgHACBQAAABBOoAAAAADCCRQAAABAOIECAAAACCdQAAAAAOEECgAAACCcQAEAAACEEygAAACAcAIFAAAAEE6gAAAAAMIJFAAAAEA4gQIAAAAIJ1AAAAAA4QQKAAAAIJxAAQAAAIQTKAAAAIBwAgUAAAAQTqAAAAAAwgkUAAAAQDiBAgAAAAgnUAAAAADhBAoAAAAgnEABAAAAhBMoAAAAgHACBQAAABBOoAAAAADCCRQAAABAOIECAAAACCdQAAAAAOEECgAAACCcQAEAAACEEygAAACAcAIFAAAAEE6gAAAAAMIJFAAAAEA4gQIAAAAIJ1AAAAAA4QQKAAAAIJxAAQAAAIQTKAAAAIBwAgUAAAAQTqAAAAAAwgkUAAAAQDiBAgAAAAgnUAAAAADhBAoAAAAgnEABAAAAhBMoAAAAgHACBQAAABBOoAAAAADCCRQAAABAOIECAAAACCdQAAAAAOEECgAAACCcQAEAAACEEygAAACAcAIFAAAAEE6gAAAAAMIJFAAAAEA4gQIAAAAIJ1AAAAAA4QQKAAAAIJxAAQAAAIQTKAAAAIBwAgUAAAAQTqAAAAAAwgkUAAAAQDiBAgAAAAgnUAAAAADhBAoAAAAgnEABAAAAhBMoAAAAgHACBQAAABBOoAAAAADCCRQAAABAOIECAAAACCdQAAAAAOEECgAAACCcQAEAAACEEygAAACAcAIFAAAAEE6gAAAAAMIJFAAAAEA4gQIAAAAIJ1AAAAAA4QQKAAAAIJxAAQAAAIQTKAAAAIBwAgUAAAAQTqAAAAAAwgkUAAAAQDiBAgAAAAgnUAAAAADhBAoAAAAgnEABAAAAhBMoAAAAgHACBQAAABBOoAAAAADCCRQAAABAOIECAAAACCdQAAAAAOEECgAAACCcQAEAAACEEygAAACAcAIFAAAAEE6gAAAAAMIJFAAAAEA4gQIAAAAIJ1AAAAAA4QQKAAAAIJxAAQAAAIQTKAAAAIBwAgUAAAAQTqAAAAAAwgkUAAAAQDiBAgAAAAgnUAAAsLLFbHywmI2PrRgApY2Wy6VFBQDgqxaz8WFVVUf540n+936czOtPVg2AUn6wkgAA3LWYjaeNKPHoC/9K+udnFg6AUgQKAABSkHhYVVUzSjz4zqoIFAAUJVAAAAxUjhK3QeLFPVfhvv8+AHyTGRQAAAOShlzmIHHcmCexrp8m8/rc9w8AJdhBAQDQc3nI5fE35kmsK30+gQKAIgQKAIAeWszGR/eYJ7GuI987AJTiiAcAQA/cmScx3WKUuOv5ZF6/9z0EwKbsoAAA6KjGPIn08SzoVaTfW6AAYGN2UAAAdEhjnsS0wJDLEq4m8/rA9xAAmxIoAABaLs+TmG5hyGUpTyfz+sL3EQCbcMQDAKBlGvMkplsecllK+joFCgA2IlAAALRAY55EerP/omPPJB05OW3B1wFAhzniAQAQJM+TmOY3+G2YJ7GJx5N5fdndLx+AaHZQAADs0GI2njZu3mjjPIl1pdd11s0vHYA2ECgAALYoz5NoRom2z5NY15FAAcAmHPEAACisMeTyqIPzJDbx42Ref+rulw9AJDsoAAAKaAy57MM8iXXZRQHA2gQKAIA15SGXxz2cJ7EucygAWJtAAQBwD4vZ+KhxHago8WdHbfpiAOgWMygAAL7hzjyJaY+HXJby02Ren/fjpQCwS3ZQAADc0ZgnkT6eWZ97SRFHoADg3uygAAD4//MkbqPEUIdclnA1mdcH3X8ZAOyaQAEADFaeJzE15LK4p5N5fdGz1wTAljniAQAMRmOexG2UME9iO9LNJid9fGEAbI9AAQD0Wp4ncRskXnjaOzEdwGsEoDBHPACA3snzJKb5J/nmScR4PJnXl0N84QCsxw4KAKAXFrPxtDHk0jyJeOk5nA59EQBYnUABAHRWHnJ5ZJ5EKwkUANyLIx4AQGc0hlyaJ9ENP07m9aehLwIAq7GDAgBotTzk8sg8iU5Kz+1s6IsAwGoECgCgdfKQy2PzJDpPoABgZQIFANAKjXkSU1GiN1w3CsDKzKAAAELcmScxNeSyt36azOvzoS8CAN9nBwUAsDONeRJTQy4HIz1vgQKA7xIoAICtyvMkbndKGHI5PEdDXwAAVuOIBwBQXJ4nMTXkkuzpZF5fWAwAvsUOCgBgY3mexLSxU8I8CZrSjSwnVgSAb7GDAgBYS54ncRslzJPgW64m8/rACgHwLQIFALCyPE9imn8ibp4E9/F4Mq8vrRgAX+OIBwDwTTlKHJsnwYbS98+pRQTgawQKAOAv8pBL8yQo6VigAOBbHPEAAG6HXB6ZJ8GW/TiZ158sMgBfYgcFAAxUHnJ5ZJ4EO5S+384sOABfIlAAwIA05klMRQkCCBQAfJUjHgDQc415ElNDLmkBxzwA+CI7KACgZ+7Mk5gacknLpO/Jcw8FgLsECgDogcY8iakhl7TckUABwJcIFADQcYvZOM2U+NVzpCOOPCgAvuRvVgUAum0yr9PQwcdVVX3wKOmAB4vZeOpBAXCXQAEAPTCZ15eTeZ3e9D0XKugAuygA+Au3eABAD+WfUL+uquqZ50sLXU3m9YEHA0CTQAEAPZbnU7x2vSgt9HQyry88GABuOeIBAD2W5lPkn1S/Sj+19qxpEXMoAPgTgQIABqARKn6uquqzZ04LHHsIADQ54gEAA7OYjR9WVXWSPx54/gR6nAa8egAAVHZQAMDwTOb1p8m8TnMp0o6KN3ZUEMhtHgD8QaAAgIFqhIrDqqre+T4ggDkUAPzBEQ8A4HeL2fgg3/jx0oqwQz+mWGbBAbCDAgD4XZoFMJnXaXDh06qqPlgVdsQxDwB+J1AAAH8ymdcXk3mdtt4/FyrYAcc8APidIx4AwDctZuP0BvK0qqonVoot+DyZ1w8tLAACBQCwksVsfJxnVDyyYhT202Ren1tUgGFzxAMAWMlkXp9N5nUapPmqqqorq0ZB5lAAYAcFALCexWycdlOcVFX1wBKyoascvwAYMIECAFjbYjZ+mCOFUMGmnqYBrVYRYLgc8QAA1jaZ158m8zrtpEg//X5rJdnAscUDGDaBAgDYWA4VaRfF46qq3llR1uC6UYCBc8QDAChuMRsf5Bs/Xlpd7uHxZF5fWjCAYbKDAgAoLr3JnMzrtGX/eVVVH6wwK3KbB8CACRQAwNZM5vX7ybyeChWsSKAAGDBHPACAnVnMxilWnFVV9ciq8xU/ppkmFgdgeOygAAB2Ju+oSPMpXlVVdWXl+QK7KAAGSqAAAHZuMq/PhAq+QqAAGCiBAgAIk0JFVVWHVVW9qarqsydBVVUvLALAMJlBAQC0wmI2flhV1Un+eOCpDNpPk3l9PvRFABgaOygAgFZIgxEn8/p1VVXp6Mc7T2XQHPMAGCA7KACAVlrMxilUpGDx0hManM+Tef1w6IsAMDQCBQDQajlUnJpNMDhPJ/P6YuiLADAkjngAAK02mdeXk3mdtvw/r6rqg6c1GMdDXwCAobGDAgDolMVsPM1HP555cr12la+iBWAgBAoAoJMWs/FRPvrxyBPsrcdpB83QFwFgKBzxAAA6KV1DmX/C/ir9tN1T7CW3eQAMiB0UAEAvLGbj47yj4oEn2hsfJ/P6cOiLADAUAgUA0BuL2ThdTXmSP4SKfnDMA2AgHPEAAHpjMq8/TeZ1GqCZjn68qarqs6fbedOhLwDAUAgUAEDvNEJFOh7wzhPuNHMoAAbCEQ8AoPcWs/Gl2z467ccUnYa+CAB9ZwcFANBreXimONFtjnkADIBAAQD03bEn3HmOeQAMgEABAPTWYjZOP3l/5gl3nkABMAACBQDQZyeebi88yLEJgB4TKACAXlrMxumq0Reebm/YRQHQcwIFANBXrz3ZXhEoAHrONaMAQO/k3RP/5cn2ztPJvL4Y+iIA9JUdFABAH5k90U92UQD0mEABAPTKYjZ+6GrR3hIoAHpMoAAA+ibtnnjgqfbSk3x8B4AeEigAgN7Iuycc7+g3uygAekqgAAD6xO6J/psOfQEA+sotHgBAL+TdE5cCxSD8OJnXn4a+CAB984Mnuj2j0ejge0O6lsulO9oBoAy7J4YjHfM4G/oiAPSNHRRbNBqN0hbEf37rd1gul6Ouv04YmuvR3mFVVac9eNnv86+X+eNif3nTiZ9IXo/2jgvc0nC2v7zxBqcn7J4YnHeTee2mFoCesYMC4P7SG6FnPVi3v7yG69HeVQoV+eN8f3lzEfOlfddBgWfwfoV/h+44FScGxaBMgB4yJBOApkdVVb2oquqXqqr+dT3a+3Q92ju7Hu15M0Br5WsnX3pCg/JgMRv7cwmgZwQKAL7lQX7j948cK15fj/YOrBgtY57TMAkUAD0jUACwqgd5Z8V/5V0VD60c0Raz8aHdE4PlulGAnjGDAjqg0FDGNADxpEvPe6ivuyPSG8KjtKNif3nTh4GhdJfvv+F6lALVZF63dVYOAPckUEA39GUo430N9XV3RdpR8fd8o8bR/vLmcugLwm4tZuOpPyMG7zhfLwtADzjiAcCmnqSdKtejPdut2TW7J/DnDkCPCBQAlJB2U/wz76aArVvMxsc5jjFsT/ItLgD0gEABQEm/ihRs22I2fmj3BA1u8wDoCYECgNJ+ddyDLTvJu3agynMoAOgBgQKAbTi/Hu3Zdk1xeTv/L1aWhid5Vw0AHSdQALAN6afbZ1aWLfB9xZc45gHQAwIFANvyzDwKSnKtKN8gUAD0gEABwDadXo/2bL2mFLsn+JoXVgag+wQKALbpQR5oCBtZzMavq6p6ZBX5msVsbBcFQMcJFABsm2MebMRgTFYkUAB03A8eIECID/vLm51exZmPWhw2/lH6/Q/yP3uyxd/60fVo72h/eXO+xd+DfnO0g1UIFAAdJ1AADMT+8uZTVVXvG6/2j/+drwSd5uMY24gVaReFQMG95W37BmOyigeL2fhwMq8vrBZANzniAUCKF5f7y5uz/eVN2k3xvKqqj4VXZae7ReiHxWz80O6Jon6rquqqR6/nSxwpA+gwgQKAP9lf3rzPoeJtwZV5cD3aEym4r9M8aJXNfZzM66PJvE67pX6uqupzT9fUMQ+ADhMoAPii/eVNOu7xquDqCBSsbDEbp++Xl1asmD9u05nM69M8f+ZND0PFo3TMowVfBwBrECgA+Kp07CNvCy/BmwZW4mhHcW8n87o5fyZFik+Tef26p6FCDAXoKIECgO85LvTm5cBKs6L0xvmRxSriKq/nFzVCRQqI77r9Uv9gDgVARwkUAHxTvv2jxE+zt3mVKT2Rj3b8u+dZzHGKEN/7ZJN5fTmZ1+mN/eMehIoni9lYEAXoIIECgFXYbs/WOdpR3F+OdnxPI1Q8rarqQ4dfu2MeAB0kUADwXfvLm4sSxzzc5MF3ONpRTrq142TdzzaZ1xeTeT3N1w53MVS4zQOggwQKAFZ1YaXYFkc7iisyhyHtwGiEio/teonf9CLvyAGgQwQKACBUfiN57ikU8ybtgCj5CXOoOMxXD1/FvryV2bEF0DECBQAQLc2deOApFPEh38qxFZN5fTaZ1wcdCRWOeQB0jEABAIRZzMbpKMILT6CIz7u6YrMRKt4UuoZ4GwQKgI4RKABYlWv7KCpfBXlqVYtJV4pe7vI3zLs12hoqHixmY5ECoEMECgC+63q097DQ7Qo7ffNE65072lHMu8m8DpnjMZnXnxqh4m3E1/AN5lAAdIhAAcAqivwUcn95I1Dwu8VsnHZOPLEaRaTbNda+UrSUHCrS1/E4BZOWrI0dFAAdIlAAsIoSQ/faek6dHXOlaFGf89GOT235gtIxk8m8Pm5JqHi0mI0Pg78GAFYkUADwTdejvZNCxzuKXntIN7lStLiT0leKltIIFc/T7SKBX4pdFAAdIVAA8FXXo73DQrsnKoGCzNyJctLcibO2f5GTef1+Mq+ngaFCoADoCIECgC/KceJ9wTeTAsXALWbjFLueDX0dCmnF3In7uBMqrnb4Wz/JN8YA0HICBQB/cT3aS28k/1X4J9229Q9Yvu7xl6GvQyGtmztxHzlUpGDwaoehwi4KgA4QKAD4XbpKNM2buB7tXW7hjeTH/eVNJ99Msbn80+vWH0XokNbOnbiPdDxlh6HCdaMAHSBQAAxUDhLTtFvierSXjnL8v6qq/l5oIOZd3pwOVGMoprkTZbztwtyJ+8ivJx0pe7PF235e5O9FAFrsBw8HIMRhjgIR0l/Sn+z49xUohus04Putrz5M5nWn5k6sKh9Xeb2YjU/zbI2TLUStI38WAbSbQAEQ48GAhgW+c7xjmBazcbpi8uXQ16GQqyHMUbgTKk4Lf/8IFAAt54gHANtW6ppSOmQxG6ct+796ZkWkYw9HXR2KuY70WifzOgWuxylyFvq05lAAtJxAAcA2pd0Tl1Z4WPJQzKgjTH3Ui6GY65jM68tGqPhtw0/3IN8mA0BLCRQAbMvnfI6cATEUs7g3fRuKuY4cKlJceJ5mcWzwqQQKgBYTKADYlmOzJwbJUMxy3k3mtSNSDZN5/X4yr6cbhArHPABaTKAAYBve7i9vzq3ssCxm49eGYhbz0Q6kr2uEip/yANFVPcrzUQBoIYECgNLS3AlvrAYm39jxy9DXoZB0PGo6pKGY65rM6/PJvE4zT17dI1Qct++VAFAJFAAUluKEv/wPjBs7ihIn1pDmdDRCxefvfAZzKABaSqAAoBRxYoBynHBjRznHQ72xo4Q8UDSFijffCBWP8k0zALSMQAFACT+LE8OTb+w4c2NHMa/SkYWevJYwafdJHi76rVBhFwVACwkUAGwiDfJ7ur+8ObWKw5LjxHs3dhTz1nWiZTVCRdrl8+7OJxdUAVpIoABgHeknkq/2lzeH+8sb29GHyXWi5aTrRA2W3ZLJvL6czOsUJB43QsWTHNkAaBGBAoD7SFPyf05bp/eXN37aO1CL2fjMdaLFfMhvntmyO6Hig2MeAO3zg2cCwArSTx3P95c3zscP3GI2PhEnivnoTfLupVCRbkoZ2usG6AKBAoAv+ZjnC7wXJbi1mI3TT5//bkGK+Og6UQD4M4ECusFfYNmWj/n7K82RuMy/Xuwvb3zP8Sc5TvxqVYq4EicA4K8ECuiANITwerTnUfVLCgMRQ/E+GWrJfS1m40Nxopg0YPZInACAvxIoYDhMK2+XFAreD30RaL8cJ3yvlvE575wQCQHgC9ziAcPRxesAS0QVb6xgTY048cAabkycAIDvECigOz4P8FkdtuBrgEESJ4oSJwBgBQIFdMfGf7G9Hu117Vq1EjsoLgt8DhgUcaIocQIAViRQQHeUGKh20LHnXWIHhUAB9yBOFCdOAMCKBArojhJ/we3akYlnBT6HNwawInGiuFfiBACsTqCA7ijxl9zOHPEodBzl8/7yxlV+sILFbJyOVJ2JE8WkOHHWk9cCADshUEB3lAgUT65He1055nFU4HO4wQNWkHdOXHT0tp+2STMnnosTAHB/P1gz6Ib95c3l9WjvqqqqRxt+wcdVVb3uwIsWKPiq/eXN6458H7eeYx1FGYgJABuwgwK6pcQb7uO2v+Lr0d5RgRBTCRTwbeJEUeIEAGxIoIBuOS/w1T66Hu21PVKcFPgcV/vLG28U4CvEiaLECQAoQKCADtlf3pznvwhv6vX1aO9hG1953j1R4vaOEjEHekmcKEqcAIBCBAroniK7KArtUigqR5PTQp/TgDr4AnGiKHECAAoSKKB7Sr3x/qXQVZ4lnRWaPeF4B3zBYjaeihPFfKyq6kCcAIByBAromP3lTXpzcVXoqz6/Hu0dtmEFrkd76UaGF4U+ndsd4I7FbJxmz/xTnCjiY9458akHrwUAWkOggG4q9QY8vVF5Hx0pcpz4pdCn+2z+BPxZjhO/WpYixAkA2BKBAjpof3lzVnAXxW2kONr1SqSZE9ejvbOCcSI53V/eeOMA2WI2PhEnink3mdeH4gQAbMcP1hU663XBNx0pUvzjerT3Lg3P3MUb/Dz/otTMiVufCw7ZpMWuR3sH6fz/hl/h5f7y5rLPz3kxG6f/xl624EvpgxQn2n5FMwB0mkABHZV2UVyP9tJPRp8UfAXpjczR9WjvdFs7EXKYeF3oKtG7dhJXaIXjAjtv3vR1XsliNr69EUecKOPVZF67GQgAtkyggG5Lb9L+VfgVPMhv/H7JOyrSPIf3m7zxzzMupvnrLRlUmj7koy8waDlOvN/if2tDI04AwI4IFNBh6SrN69He26qq/n1Lr+Ll7U9gr0d7aTBcuk7vMv/6rWBxu/3+Nkzs4taAkx38HtBqi9n4IEdFcWJzn/MwTNeIAsCOCBTQcfvLm5N8bGLbb0ietPhNz88p1rTg64Awi9n4MO+ccI3o5lKQPRYnAGC3BAroh+MBvzH5bX95YzAmg5avET0VJ4pwjSgr+/v/PZharUG6+Pn/XPozArZAoIAeyEc90huUfwzseX7McQYGK18j+nffAUW4qYP7+qcVG6Tn+QdDQGF/s6DQD/vLm3Tu/NWAHmc6H37k1g6GLF8jKk6U8bM4AQCx7KCAHslXjx4UuH6x7X4fXre/vLn0/csQuamjqM953sR5j14TAHSSHRTQM/vLm9dVVb3p8XO9jROG1zFIeRjmhThRxO28CXECAFpAoIAeypGij8c9PooTDFkehpl2TjzyjbCx31wjCgDt4ogH9FQ+7pHmM5z1ZLL/bZwwc4JBWszGrwdwfGtX3kzm9ethvFQA6A6BAnosDc68Hu1Nc6To8nbwt/vLm5MWfB2wc3neRPpv+IXV35h5EwDQYo54QM/l4xApUrzt4CtNbyZ+EicYqsa8CXFic+ZNAEDLCRQwAOlYRH6Tn+7tvurIK35XVdVBvj4VBse8iaLemTcBAO3niAcMyP7yJr3ZObge7aWz1yctnU3xoaqq1/lrbavLAjeluCJ1MyW+P1r7PbaYjU+rqvr3FnwpffDzZF6fDn0RAKALBAoYoHTLx/Vo7zRHiraEio85TLR+x8T+8ibFBQP2AuWA1eaItZbFbHxQVdW5K0SLSLvFjuyaAIDucMQDBiof+0hvstMbop8Dj36kq/6e7y9vDh3nYMgWs/FRnjchTmwu/blyKE4AQLfYQQEDl6/tTLspTvONH+nc+9GWd1V8zLcSnOfdCDBorhAtypEOAOgogQL4Q3PbfI4Vtx/PNlylq/yT4bRD4r0oAf/LkY6iHOkAgI4TKIAvunvG/3q0d5iPg6RfH+Zfv+RTjhFV/v9f5F0aQEM+0nHW0mG1XZNu6TiZzGt/1gBAhwkUwEr2lzcXjV0QwJoWs/HDPGTVLR2b+5zDxFnXXwgAIFAAwM4sZuPDvGvCkY7NpSuJjyfz2pExAOgJgQIAdmAxG5/knROOdGzuzWReu+oXAHpGoACALcpHOs4LDJvlf28AOjYIEwD66W+eKwBsRx6EeSlOFPE23SokTgBAf9lBAQCF5V0Tp1VVvbS2G7vKuybeb/n3AQCC2UEBAAUtZuNpvvFGnNhc2jVxKE4AwDDYQQEABbg+tCi7JgBggOygAIANNXZNiBObs2sCAAbKDgoAWJNdE0XZNQEAAydQAMAa8q6Js6qqHlm/jb1JQ0Un8/pTx18HALABgQIA7iHvmkhh4oV129jHvGvC1aEAgEABAKtazMZHOU48sGgb+ZyOxkzm9WmHXwMAUJhAAQDfsZiND3KYeGatNvZbVVUnk3l92fHXAQAUJlAAwDcsZuM0BPPEromNGYIJAHyTQAEAX2AIZlGGYAIA3yVQAEBDHoKZZiO8tC4b+5B3TTjOAQB8l0ABANliNk5HOV47zrGxqzxn4rzjrwMA2CGBAoDBy8c50q6JJ0Nfiw19zkc5Xnf6VQAAIQQKAAYr386RwsQL3wUbe5evDnWcAwBYi0ABwODkORMnbuco4kMOE27nAAA2IlAAMCiL2fg4z5lwO8dmrnKYOOvyiwAA2kOgAGAQ8pyJFCaeeeIbMWcCANgKgQKAXstzJl67NrSIt3nXxKcevBYAoGUECgB6qTFn4hdPeGMGYAIAWydQANA7i9n4tQGYRaQBmCeTeX3Rg9cCALScQAFAbxiAWYybOQCAnRMoAOg8YaIYYQIACCNQANBZbuYoxpWhAEA4gQKAzhEmihEmAIDWECgA6AxhohhhAgBoHYECgNYTJooRJgCA1hIoAGgtYaKYNPzydDKvz3vyegCAHhIoAGgdYaIYt3IAAJ0hUADQGsJEMb/lHRPCBADQGQIFAOEWs/FxDhOPPI2NvMs7Ji47/BoAgIESKAAIsZiNH1ZVdSRMbOxz2i1RVdWZMAEAdJlAAcBO5TBxkj8eWP21XTXCxKeOvgYAgPCcF/MAABDUSURBVD8IFADsxGI2Psi7JY6EiY18yFHCVaEAQK8IFABsVR58mXZLvLDSG3mXw4TBlwBALwkUAGxFHnyZwsQTK7w28yUAgMEQKAAoJh/jODZfYmOOcQAAgyNQALCxfIwjhYmXVnNtabfEedoxMZnXFx19DQAAaxMoAFiLa0KLucpreO42DgBgyAQKAO5lMRsf5iMcbuPYjKGXAAANAgUA39XYLWHo5WY+5qGXdksAANwhUADwVXZLFGG2BADACgQKAP4k75Y4zh92S6zvt7xTwk0cAAArECgA+N1iNj7KOyXcxLG+q8YRjsuuvggAgAgCBcCA5SMcxzlMuIljPekIx1keeOkIBwDAmgQKgIFZzMYHOUg4wrG+27kSaafEeVdfBABAmwgUAAPQuIUjfbzwzNdmrgQAwJYIFAA9ludKHIsSG/mtsVvC1aAAAFsiUAD0TGPYpatB1ydKAADsmEAB0AOiRBGiBABAIIECoIPyTImpKLGRPwZdVlX1XpQAAIglUAB0hEGXRVw1goTbNwAAWkSgAGixxpWg6eOZZ7WWj42jGxcd/PoBAAZBoABomcVs3Dy68cjzubd0dON9Y6fEZce+fgCAQRIoAII1jm5MzZNY28fbKDGZ1+87+hoAAAZNoAAI0NglkX594hnc2+2Ay/d2SQAA9INAAbADjVkS0/xhl8T9fWgc2zBLAgCgZwQKgC3IQWLa+DBL4v4+NoKEYxsAAD0nUAAUkOdITBtzJASJ+7udI3F7bONT114AAADrEygA1nBnh8ShORJr+dCIEXZIAAAMnEABsILFbHzYiBGObNzf58buiAtBAgCAuwQKgDvycY3DOzskDLW8n9vjGhdu2QAAYBUCBTB4+crPQ7sj1nZ1GyLsjgAAYF0CBTAod2KE2RH3dxsjmkHCMEsAADYmUAC9dOeYRvr1QIy4t485RFyKEQAAbJtAAXRaI0TcRohDMyPu7XNjR0SKEZeOaQAAsGsCBdAJ+VrPAyFiI1c5QFw0frUrAgCAVhAogNZoRIhmjEg7JJ55SvfyoaqqT40QYUcEAACtJ1AAO9MIEA8b8eH2V/MhVnd7JONPEcJuCAAAukygADbWmANRNXY/VHlAZeUoxr19zPHhNjzchohPk3l90bHXAgAAKxEogBIe5s/RDBIPc6h4ZIX/cBseqjyQsmpEiMoxDAAAhkygADY2mdeXjasov2gxG9/Gi+Zui+b/rjoUNJqhoWpGhqy5Do5dAADACgQKYCfu7A44X/X3XMzGh40dGnc1j5Os6+JObPgTuxoAAGA3BAqg1cxcAACAYfib5wwAAABEEygAAACAcAIFAAAAEE6gAAAAAMIJFAAAAEA4gQIAAAAIJ1AAAAAA4QQKAAAAIJxAAQAAAIQTKAAAAIBwAgUAAAAQTqAAAAAAwgkUAAAAQDiBAgAAAAgnUAAAAADhBAoAAAAgnEABAAAAhBMoAAAAgHACBQAAABBOoAAAAADCCRQAAABAOIECAAAACCdQAAAAAOEECgAAACCcQAEAAACEEygAAACAcAIFAAAAEE6gAAAAAMIJFAAAAEA4gQIAAAAIJ1AAAAAA4QQKAAAAIJxAAQAAAIQTKAAAAIBwAgUAAAAQTqAAAAAAwgkUAAAAQLgfPAIAKOc//vXfS8s5SM//8+m/vR/6IgDAJuygAAAAAMIJFAAAAEA4gQIAAAAIJ1AAAAAA4QQKAAAAIJxAAQAAAIQTKAAAAIBwAgUAAAAQTqAAAAAAwgkUAAAAQDiBAgAAAAgnUAAAAADhBAoAAAAgnEABAAAAhBMoAAAAgHACBQAAABBOoAAAAADCCRQAAABAOIECAAAACCdQAAAAAOEECgAAACCcQAEAAACEEygAAACAcAIFAAAAEE6gAAAAAMIJFAAAAEA4gQIAAAAIJ1AAAAAA4QQKAAAAIJxAAQAAAIQTKAAAAIBwAgUAAAAQTqAAAAAAwgkUAAAAQDiBAgAAAAgnUAAAAADhBAoAAAAgnEABAAAAhBMoAAAAgHACBQAAABBOoAAAAADCCRQAAABAOIECAAAACCdQAAAAAOEECgAAACCcQAEAAACEEygAAACAcAIFAAAAEE6gAAAAAMIJFAAAAEA4gQIAAAAIJ1AAAAAA4QQKAAAAIJxAAQAAAIQTKAAAAIBwAgUAAAAQTqAAAAAAwgkUAAAAQDiBAgAAAAgnUAAAAADhBAoAAAAgnEABAAAAhBMoAAAAgHACBQAAABBOoAAAAADCCRQAAABAOIECAAAACCdQAAAAAOEECgAAACCcQAEAAACEEygAAACAcAIFAAAAEE6gAAAAAMIJFAAAAEA4gQIAAAAIJ1AAAAAA4QQKAAAAIJxAAQAAAIQTKAAAAIBwAgUAAAAQTqAAAAAAwgkUAAAAQDiBAgAAAAgnUAAAAADhBAoAAAAgnEABAAAAhBMoAAAAgHACBQAAABBOoAAAAADCCRQAAABAOIECAAAACCdQAAAAAOEECgAAACCcQAEAAACE+8EjgO36j3/992FVVaeWeXj+8+m/TYe+BgAAsCqBArbvYVVVz6wzAADA1zniAQAAAIQTKAAAAIBwAgUAAAAQTqAAAAAAwgkUAAAAQDiBAgAAAAgnUAAAAADhBAoAAAAgnEABAAAAhBMoAAAAgHACBQAAABBOoAAAAADCCRQAAABAOIECAAAACCdQAAAAAOEECgAAACCcQAEAAACEEygAAACAcAIFAAAAEE6gAAAAAMIJFAAAAEA4gQIAAAAIJ1AAAAAA4QQKAAAAIJxAAQAAAIQTKAAAAIBwAgUAAAAQTqAAAAAAwgkUAAAAQDiBAgAAAAgnUAAAAADhBAoAAAAgnEABAAAAhBMoAAAAgHACBQAAABBOoAAAAADCCRQAAABAOIECAAAACCdQAAAAAOEECgAAACCcQAEAAACEEygAAACAcAIFAAAAEE6gAAAAAMIJFAAAAEA4gQIAAAAIJ1AAAAAA4QQKAAAAIJxAAQAAAIQTKAAAAIBwAgUAAAAQTqAAAAAAwgkUAAAAQDiBAgAAAAgnUAAAAADhBAoAAAAgnEABAAAAhBMoAAAAgHACBQAAABBOoAAAAADCCRQAAABAOIECAAAACCdQAAAAAOEECgAAACCcQAEAAACEEygAAACAcAIFAAAAEE6gAAAAAMIJFAAAAEA4gQIAAAAIJ1AAAAAA4QQKAAAAIJxAAQAAAIQTKAAAAIBwAgUAAAAQTqAAAAAAwgkUAAAAQDiBAgAAAAgnUAAAAADhBAoAAAAgnEABAAAAhBMoAAAAgHACBQAAABBOoAAAAADCCRQAAABAOIECAAAACCdQAAAAAOEECgAAACCcQAEAAACEEygAAACAcAIFAAAAEE6gAAAAAMIJFAAAAEA4gQIAAAAIJ1AAAAAA4QQKAAAAIJxAAQAAAIQTKAAAAIBwAgUAAAAQTqAAAAAAwgkUAAAAQDiBAgAAAAgnUAAAAADhBAoAAAAgnEABAAAAhBMoAAAAgHACBQAAABBOoAAAAADCCRQAAABAOIECAAAACCdQAAAAAOEECgAAACCcQAEAAACEEygAAACAcAIFAAAAEE6gAAAAAMIJFAAAAEA4gQIAAAAIJ1AAAAAA4QQKAAAAIJxAAQAAAIQTKAAAAIBwAgUAAAAQTqAAAAAAwgkUAAAAQDiBAgAAAAgnUAAAAADhBAoAAAAgnEABAAAAhBMoAAAAgHACBQAAABBOoAAAAADCCRQAAABAOIECAAAACCdQAAAAAOEECgAAACCcQAEAAACEEygAAACAcAIFAAAAEE6gAAAAAMIJFAAAAEA4gQIAAAAIJ1AAAAAA4QQKAAAAIJxAAQAAAIQTKAAAAIBwAgUAAAAQTqAAAAAAwgkUAAAAQDiBAgAAAAgnUAAAAADhBAoAAAAgnEABAAAAhBMoAAAAgHACBQAAABBOoAAAAADCCRQAAABAOIECAAAACCdQAAAAAOEECgAAACCcQAEAAACEEygAAACAcAIFAAAAEE6gAAAAAMIJFAAAAEA4gQIAAAAIJ1AAAAAA4QQKAAAAIJxAAQAAAIQTKAAAAIBwAgUAAAAQTqAAAAAAwgkUAAAAQDiBAgAAAAgnUAAAAADhBAoAAAAgnEABAAAAhBMoAAAAgHACBQAAABBOoAAAAADCCRQAAABAOIECAAAACDdaLpeewpaMRqNpVVX/7OWLAwAA6LcPy+Vy6hnvjh0UAAAAQDiBAgAAAAgnUAAAAADhBAoAAAAgnEABAAAAhBMoAAAAgHACBQAAABDuB49gqy6qqnre49cHAADQV5882d0aLZfLIb1eAAAAoIUc8QAAAADCCRQAAABAOIECAAAACCdQAAAAAOEECgAAACCcQAEAAACEEygAAACAcAIFAAAAEE6gAAAAAMIJFAAAAEA4gQIAAAAIJ1AAAAAA4QQKAAAAIJxAAQAAAIQTKAAAAOB/2rFjAgAAAIRB9k9tjD0QA3KCAgAAAMgJCgAAACAnKAAAAICcoAAAAAByggIAAADICQoAAAAgJygAAACAnKAAAAAAcoICAAAAyAkKAAAAICcoAAAAgJygAAAAAHKCAgAAAMgJCgAAACAnKAAAAICcoAAAAAByggIAAADICQoAAAAgJygAAACAnKAAAAAAcoICAAAAyAkKAAAAICcoAAAAgJygAAAAAHKCAgAAAMgJCgAAACAnKAAAAICcoAAAAAByggIAAADICQoAAAAgJygAAACAnKAAAAAAcoICAAAAyAkKAAAAICcoAAAAgJygAAAAAHKCAgAAAMgJCgAAACAnKAAAAICcoAAAAAByggIAAADICQoAAAAgJygAAACAnKAAAAAAcoICAAAAyAkKAAAAICcoAAAAgJygAAAAAHKCAgAAAMgJCgAAACAnKAAAAICcoAAAAAByggIAAADICQoAAAAgJygAAACAnKAAAAAAcoICAAAAyAkKAAAAICcoAAAAgJygAAAAAHKCAgAAAMgJCgAAACAnKAAAAICcoAAAAAByggIAAADICQoAAAAgJygAAACAnKAAAAAAcoICAAAAyAkKAAAAICcoAAAAgJygAAAAAHKCAgAAAMgJCgAAACAnKAAAAICcoAAAAAByggIAAADICQoAAAAgJygAAACAnKAAAAAAcoICAAAAyAkKAAAAICcoAAAAgJygAAAAAHKCAgAAAMgJCgAAACAnKAAAAICcoAAAAAByggIAAADICQoAAAAgJygAAACAnKAAAAAAcoICAAAAyAkKAAAAICcoAAAAgJygAAAAAHKCAgAAAMgJCgAAACAnKAAAAICcoAAAAAByggIAAADICQoAAAAgJygAAACAnKAAAAAAcoICAAAAyAkKAAAAICcoAAAAgJygAAAAAHKCAgAAAMgJCgAAACAnKAAAAICcoAAAAAByggIAAADICQoAAAAgJygAAACAnKAAAAAAcoICAAAAyAkKAAAAICcoAAAAgJygAAAAAHKCAgAAAMgJCgAAACAnKAAAAICcoAAAAAByggIAAADICQoAAAAgJygAAACAnKAAAAAAcoICAAAAyAkKAAAAICcoAAAAgJygAAAAAHKCAgAAAMgJCgAAACAnKAAAAICcoAAAAAByggIAAADICQoAAAAgJygAAACAnKAAAAAAcoICAAAAyAkKAAAAICcoAAAAgJygAAAAAHKCAgAAAMgJCgAAACAnKAAAAICcoAAAAAByggIAAADICQoAAAAgJygAAACAnKAAAAAAcoICAAAAaG07ogQYvIbwF3cAAAAASUVORK5CYII=;" vertex="1" parent="1">
                    <mxGeometry x="355" y="370" width="170" height="151.15" as="geometry"/>
                </mxCell>
                <mxCell id="35" value="Text" style="text;html=1;strokeColor=none;fillColor=none;align=center;verticalAlign=middle;whiteSpace=wrap;rounded=0;" vertex="1" parent="1">
                    <mxGeometry x="560" y="290" width="160" height="240" as="geometry"/>
                </mxCell>
                <mxCell id="36" value="〇〇〇のテスト詳細" style="rounded=0;whiteSpace=wrap;html=1;" vertex="1" parent="1">
                    <mxGeometry x="427.36" y="160" width="150" height="40" as="geometry"/>
                </mxCell>
                <mxCell id="37" value="" style="group" vertex="1" connectable="0" parent="1">
                    <mxGeometry x="347.36" y="210" width="440" height="40" as="geometry"/>
                </mxCell>
                <mxCell id="38" value="" style="rounded=0;whiteSpace=wrap;html=1;" vertex="1" parent="37">
                    <mxGeometry x="20" width="420" height="40" as="geometry"/>
                </mxCell>
                <mxCell id="39" value="開始時間" style="text;html=1;strokeColor=none;fillColor=none;align=center;verticalAlign=middle;whiteSpace=wrap;rounded=0;" vertex="1" parent="37">
                    <mxGeometry x="70" y="10" width="60" height="20" as="geometry"/>
                </mxCell>
                <mxCell id="40" value="終了時間" style="text;html=1;strokeColor=none;fillColor=none;align=center;verticalAlign=middle;whiteSpace=wrap;rounded=0;" vertex="1" parent="37">
                    <mxGeometry x="140" y="10" width="60" height="20" as="geometry"/>
                </mxCell>
                <mxCell id="41" value="合否" style="text;html=1;strokeColor=none;fillColor=none;align=center;verticalAlign=middle;whiteSpace=wrap;rounded=0;" vertex="1" parent="37">
                    <mxGeometry x="270" y="10" width="60" height="20" as="geometry"/>
                </mxCell>
                <mxCell id="42" value="--" style="text;html=1;strokeColor=none;fillColor=none;align=center;verticalAlign=middle;whiteSpace=wrap;rounded=0;" vertex="1" parent="37">
                    <mxGeometry y="10" width="60" height="20" as="geometry"/>
                </mxCell>
                <mxCell id="43" value="解説" style="rounded=1;whiteSpace=wrap;html=1;" vertex="1" parent="37">
                    <mxGeometry x="370" y="10" width="50" height="20" as="geometry"/>
                </mxCell>
            </root>
        </mxGraphModel>
    </diagram>
</mxfile>